<svg width="114" height="39" viewBox="0 0 114 39" fill="none" xmlns="http://www.w3.org/2000/svg">
<rect width="114" height="39" rx="19.5" fill="#F5D72C"/>
<path d="M27.635 19.8698H25.49C25.35 19.2998 25.09 18.9048 24.71 18.6848C24.34 18.4648 23.695 18.3548 22.775 18.3548C21.705 18.3548 20.95 18.5698 20.51 18.9998C20.08 19.4198 19.865 20.0648 19.865 20.9348C19.865 21.7748 20.085 22.4148 20.525 22.8548C20.975 23.2848 21.745 23.4998 22.835 23.4998C23.665 23.4998 24.275 23.3998 24.665 23.1998C25.065 22.9998 25.355 22.6548 25.535 22.1648H27.68C27.52 23.1948 27.065 23.9748 26.315 24.5048C25.565 25.0248 24.39 25.2848 22.79 25.2848C21.56 25.2848 20.57 25.1098 19.82 24.7598C19.08 24.3998 18.535 23.8948 18.185 23.2448C17.845 22.5948 17.675 21.8248 17.675 20.9348C17.675 20.0048 17.845 19.2148 18.185 18.5648C18.535 17.9148 19.085 17.4198 19.835 17.0798C20.585 16.7398 21.565 16.5698 22.775 16.5698C24.025 16.5698 24.925 16.6898 25.475 16.9298C26.025 17.1698 26.5 17.5348 26.9 18.0248C27.31 18.5148 27.555 19.1298 27.635 19.8698Z" fill="#003B7A"/>
<path d="M34.4426 25.2848C33.1926 25.2848 32.1776 25.1298 31.3976 24.8198C30.6176 24.4998 30.0776 23.9948 29.7776 23.3048C29.4776 22.6148 29.3276 21.8248 29.3276 20.9348C29.3276 20.0048 29.4776 19.1948 29.7776 18.5048C30.0776 17.8148 30.6226 17.3198 31.4126 17.0198C32.2026 16.7198 33.2126 16.5698 34.4426 16.5698C35.7926 16.5698 36.8276 16.7148 37.5476 17.0048C38.2676 17.2948 38.7876 17.7998 39.1076 18.5198C39.4276 19.2298 39.5876 20.0348 39.5876 20.9348C39.5876 21.8548 39.4126 22.6648 39.0626 23.3648C38.7226 24.0548 38.2026 24.5498 37.5026 24.8498C36.8026 25.1398 35.7826 25.2848 34.4426 25.2848ZM34.4426 23.4998C35.5626 23.4998 36.3176 23.2898 36.7076 22.8698C37.1076 22.4498 37.3076 21.8048 37.3076 20.9348C37.3076 20.0648 37.1176 19.4198 36.7376 18.9998C36.3676 18.5698 35.6026 18.3548 34.4426 18.3548C33.3726 18.3548 32.6326 18.5748 32.2226 19.0148C31.8126 19.4448 31.6076 20.0848 31.6076 20.9348C31.6076 21.8248 31.8276 22.4748 32.2676 22.8848C32.7176 23.2948 33.4426 23.4998 34.4426 23.4998Z" fill="#003B7A"/>
<path d="M43.8088 20.4098V24.9998H41.5888V18.5948L41.2438 16.8548H43.4638L43.7788 18.3698C43.7888 18.3398 43.7988 18.3098 43.8088 18.2798C44.0788 17.7698 44.4188 17.3598 44.8288 17.0498C45.2488 16.7298 45.8688 16.5698 46.6888 16.5698C47.3088 16.5698 47.8538 16.6398 48.3238 16.7798C48.7938 16.9098 49.1338 17.2348 49.3438 17.7548C49.4238 17.9548 49.4838 18.1698 49.5238 18.3998C49.5438 18.3598 49.5638 18.3198 49.5838 18.2798C49.8538 17.7698 50.1938 17.3598 50.6038 17.0498C51.0238 16.7298 51.6438 16.5698 52.4638 16.5698C53.0838 16.5698 53.6288 16.6398 54.0988 16.7798C54.5688 16.9098 54.9038 17.2348 55.1038 17.7548C55.3138 18.2748 55.4188 18.8848 55.4188 19.5848V24.9998H53.1988V20.0348C53.1988 19.6348 53.1538 19.2898 53.0638 18.9998C52.9838 18.7098 52.8238 18.5298 52.5838 18.4598C52.3438 18.3898 52.0588 18.3548 51.7288 18.3548C51.2688 18.3548 50.8988 18.4098 50.6188 18.5198C50.3388 18.6198 50.1238 18.7898 49.9738 19.0298C49.8338 19.2698 49.7338 19.4998 49.6738 19.7198C49.6638 19.7598 49.6538 19.8048 49.6438 19.8548V24.9998H47.4238V20.0348C47.4238 19.6348 47.3788 19.2898 47.2888 18.9998C47.2088 18.7098 47.0488 18.5298 46.8088 18.4598C46.5688 18.3898 46.2838 18.3548 45.9538 18.3548C45.4938 18.3548 45.1238 18.4098 44.8438 18.5198C44.5638 18.6198 44.3488 18.7898 44.1988 19.0298C44.0588 19.2698 43.9588 19.4998 43.8988 19.7198C43.8388 19.9298 43.8088 20.1598 43.8088 20.4098Z" fill="#003B7A"/>
<path d="M63.1311 25.2848C62.2711 25.2848 61.5061 25.1198 60.8361 24.7898C60.3261 24.5298 59.9261 24.1698 59.6361 23.7098V27.6548H57.4161V18.7148L57.0711 16.8548H59.2911L59.5911 18.4748C59.7511 18.2148 59.9361 17.9698 60.1461 17.7398C60.8861 16.9598 61.8361 16.5698 62.9961 16.5698C63.0261 16.5698 63.0561 16.5698 63.0861 16.5698C64.6761 16.5898 65.7761 16.9798 66.3861 17.7398C66.9961 18.4998 67.3011 19.5648 67.3011 20.9348C67.3011 21.8248 67.1561 22.6498 66.8661 23.4098C66.5761 24.1598 66.1311 24.6598 65.5311 24.9098C64.9411 25.1598 64.1411 25.2848 63.1311 25.2848ZM62.5911 23.4998C63.6411 23.4998 64.3511 23.2598 64.7211 22.7798C65.1011 22.2998 65.2911 21.6848 65.2911 20.9348C65.2911 20.1548 65.0911 19.5298 64.6911 19.0598C64.3011 18.5898 63.6011 18.3548 62.5911 18.3548C61.6711 18.3548 60.9461 18.6098 60.4161 19.1198C59.8961 19.6198 59.6361 20.2248 59.6361 20.9348C59.6361 21.6648 59.8961 22.2748 60.4161 22.7648C60.9461 23.2548 61.6711 23.4998 62.5911 23.4998Z" fill="#003B7A"/>
<path d="M71.5381 21.1148V24.9998H69.3031V18.5498L68.9581 16.8548H71.1931L71.4931 18.3548C71.7131 17.8448 71.9881 17.4848 72.3181 17.2748C72.6981 17.0348 73.1931 16.9048 73.8031 16.8848C74.2331 16.8648 74.5381 16.8548 74.7181 16.8548C74.9081 16.8448 75.0681 16.8398 75.1981 16.8398C75.4481 16.8398 75.7781 16.8448 76.1881 16.8548V18.5348H74.0731C73.4731 18.5348 73.0031 18.6398 72.6631 18.8498C72.3331 19.0498 72.0931 19.2798 71.9431 19.5398C71.7931 19.7998 71.6881 20.0548 71.6281 20.3048C71.5681 20.5548 71.5381 20.8248 71.5381 21.1148Z" fill="#003B7A"/>
<path d="M80.2888 19.5698H78.0688C78.1488 18.9498 78.3638 18.4198 78.7138 17.9798C79.0638 17.5298 79.5188 17.1848 80.0788 16.9448C80.6488 16.6948 81.4938 16.5698 82.6138 16.5698C83.9638 16.5698 84.9138 16.7148 85.4638 17.0048C86.0138 17.2948 86.4288 17.6898 86.7088 18.1898C86.9988 18.6798 87.1438 19.2398 87.1438 19.8698V23.2598L87.4888 24.9998H85.2688L84.9538 23.4098C84.9338 23.4498 84.9188 23.4898 84.9088 23.5298C84.7488 23.9298 84.4588 24.2748 84.0388 24.5648C83.6188 24.8548 83.1638 25.0448 82.6738 25.1348C82.1838 25.2348 81.5388 25.2848 80.7388 25.2848C80.2088 25.2848 79.6988 25.1948 79.2088 25.0148C78.7188 24.8448 78.3538 24.5048 78.1138 23.9948C77.8838 23.4748 77.7688 22.9548 77.7688 22.4348C77.7688 21.6648 77.9338 21.1348 78.2638 20.8448C78.6038 20.5548 79.0988 20.3448 79.7488 20.2148C80.3288 20.0948 81.0888 20.0298 82.0288 20.0198C82.2488 20.0198 82.4738 20.0198 82.7038 20.0198C83.3938 20.0198 84.1338 20.0298 84.9238 20.0498V19.8248C84.9238 19.3348 84.7688 18.9698 84.4588 18.7298C84.1588 18.4798 83.5638 18.3548 82.6738 18.3548C81.8038 18.3548 81.2038 18.4698 80.8738 18.6998C80.5438 18.9198 80.3488 19.2098 80.2888 19.5698ZM84.9238 21.2348C84.6138 21.2248 84.3238 21.2198 84.0538 21.2198C83.3738 21.2198 82.8038 21.2398 82.3438 21.2798C81.6438 21.3298 81.1188 21.4048 80.7688 21.5048C80.4288 21.6048 80.2138 21.7348 80.1238 21.8948C80.0338 22.0448 79.9888 22.2248 79.9888 22.4348C79.9888 22.4548 79.9888 22.4748 79.9888 22.4948C80.0088 22.9448 80.1038 23.2798 80.2738 23.4998C80.4438 23.7198 80.7838 23.8348 81.2938 23.8448C81.3638 23.8448 81.4288 23.8448 81.4888 23.8448C82.0188 23.8448 82.5088 23.8098 82.9588 23.7398C83.4088 23.6598 83.8388 23.4598 84.2488 23.1398C84.6588 22.8198 84.8838 22.3848 84.9238 21.8348V21.2348Z" fill="#003B7A"/>
<path d="M91.723 21.1148V24.9998H89.488V18.5498L89.143 16.8548H91.378L91.678 18.3548C91.898 17.8448 92.173 17.4848 92.503 17.2748C92.883 17.0348 93.378 16.9048 93.988 16.8848C94.418 16.8648 94.723 16.8548 94.903 16.8548C95.093 16.8448 95.253 16.8398 95.383 16.8398C95.633 16.8398 95.963 16.8448 96.373 16.8548V18.5348H94.258C93.658 18.5348 93.188 18.6398 92.848 18.8498C92.518 19.0498 92.278 19.2798 92.128 19.5398C91.978 19.7998 91.873 20.0548 91.813 20.3048C91.753 20.5548 91.723 20.8248 91.723 21.1148Z" fill="#003B7A"/>
</svg>
