<svg width="23" height="24" viewBox="0 0 23 24" fill="none" xmlns="http://www.w3.org/2000/svg">
<path d="M11.2747 0.920898C5.13934 0.920898 0.147766 5.91248 0.147766 12.0479C0.147766 18.1828 5.13934 23.1748 11.2747 23.1748C17.4097 23.1748 22.4017 18.1828 22.4017 12.0479C22.4017 5.91248 17.4105 0.920898 11.2747 0.920898ZM14.0419 12.4396H12.2316V18.8918H9.54916C9.54916 18.8918 9.54916 15.3663 9.54916 12.4396H8.27404V10.1591H9.54916V8.68413C9.54916 7.62773 10.0511 5.97702 12.2563 5.97702L14.244 5.98464V8.19828C14.244 8.19828 13.0361 8.19828 12.8013 8.19828C12.5664 8.19828 12.2325 8.31571 12.2325 8.81949V10.1596H14.2763L14.0419 12.4396Z" fill="#003B7A"/>
</svg>
