<svg width="23" height="24" viewBox="0 0 23 24" fill="none" xmlns="http://www.w3.org/2000/svg">
<path d="M11.2096 13.8058C12.1808 13.8058 12.968 13.0185 12.968 12.0474C12.968 11.0763 12.1808 10.2891 11.2096 10.2891C10.2385 10.2891 9.45129 11.0763 9.45129 12.0474C9.45129 13.0185 10.2385 13.8058 11.2096 13.8058Z" fill="#003B7A"/>
<path d="M13.4585 7.60449H8.96088C8.37844 7.60449 7.81985 7.83587 7.408 8.24772C6.99615 8.65957 6.76477 9.21816 6.76477 9.8006V14.2968C6.76477 14.8792 6.99615 15.4378 7.408 15.8497C7.81985 16.2615 8.37844 16.4929 8.96088 16.4929H13.4585C14.041 16.4929 14.5995 16.2615 15.0114 15.8497C15.4232 15.4378 15.6546 14.8792 15.6546 14.2968V9.79914C15.6542 9.21695 15.4227 8.65873 15.0109 8.2472C14.5991 7.83567 14.0407 7.60449 13.4585 7.60449ZM11.2097 14.9263C10.6403 14.9266 10.0837 14.758 9.61016 14.4419C9.13663 14.1258 8.76747 13.6764 8.54939 13.1505C8.33131 12.6245 8.2741 12.0458 8.38499 11.4873C8.49589 10.9289 8.76991 10.4159 9.1724 10.0132C9.57489 9.61047 10.0878 9.33618 10.6462 9.225C11.2045 9.11382 11.7834 9.17074 12.3094 9.38855C12.8354 9.60636 13.2851 9.97529 13.6014 10.4487C13.9178 10.922 14.0866 11.4786 14.0866 12.048C14.0858 12.8109 13.7825 13.5423 13.2432 14.0819C12.7039 14.6215 11.9726 14.9252 11.2097 14.9263ZM14.1042 9.88113C13.9633 9.88141 13.8255 9.83989 13.7083 9.76182C13.5911 9.68375 13.4996 9.57263 13.4456 9.44256C13.3916 9.31248 13.3774 9.16929 13.4048 9.03113C13.4322 8.89297 13.5 8.76605 13.5996 8.66645C13.6992 8.56685 13.8261 8.49906 13.9643 8.47165C14.1024 8.44424 14.2456 8.45845 14.3757 8.51249C14.5058 8.56653 14.6169 8.65795 14.6949 8.77519C14.773 8.89243 14.8145 9.0302 14.8142 9.17105C14.8139 9.35925 14.7389 9.53964 14.6058 9.67272C14.4728 9.8058 14.2924 9.88074 14.1042 9.88113Z" fill="#003B7A"/>
<path d="M11.2097 0.920898C9.00896 0.920898 6.85768 1.57348 5.02786 2.79613C3.19804 4.01877 1.77187 5.75657 0.929697 7.78975C0.0875237 9.82294 -0.132827 12.0602 0.296509 14.2186C0.725845 16.377 1.78558 18.3597 3.34172 19.9158C4.89785 21.4719 6.88048 22.5317 9.0389 22.961C11.1973 23.3903 13.4346 23.17 15.4678 22.3278C17.5009 21.4856 19.2387 20.0595 20.4614 18.2297C21.684 16.3998 22.3366 14.2486 22.3366 12.0479C22.3366 9.0968 21.1643 6.26662 19.0776 4.17991C16.9909 2.0932 14.1607 0.920898 11.2097 0.920898ZM16.7731 14.2967C16.7724 15.1755 16.4229 16.0182 15.8014 16.6396C15.18 17.2611 14.3373 17.6106 13.4585 17.6113H8.96085C8.0821 17.6102 7.23968 17.2606 6.61831 16.6392C5.99694 16.0178 5.64735 15.1754 5.64619 14.2967V9.79904C5.64735 8.92029 5.99694 8.07787 6.61831 7.4565C7.23968 6.83513 8.0821 6.48554 8.96085 6.48438H13.4585C14.3372 6.48554 15.1796 6.83513 15.801 7.4565C16.4224 8.07787 16.772 8.92029 16.7731 9.79904V14.2967Z" fill="#003B7A"/>
</svg>
