<svg width="65" height="65" viewBox="0 0 65 65" fill="none" xmlns="http://www.w3.org/2000/svg">
<circle cx="32.5" cy="32.5" r="32.5" fill="white"/>
<path fill-rule="evenodd" clip-rule="evenodd" d="M10.2108 36.7744C14.5304 32.0516 21.5817 29.1225 26.144 28.9785C31.7554 28.8057 35.063 32.031 35.2029 36.507C35.281 39.1317 34.5981 41.4231 31.7266 44.5168C29.3241 47.2649 28.2133 47.7627 27.9871 47.775C27.7402 47.7833 27.6456 47.6516 27.6415 47.4829C27.6333 47.3184 27.6621 47.1497 27.7197 47.1003C27.9953 46.8453 28.2257 46.5655 28.4848 46.2652C29.4598 45.1833 29.5668 45.0393 30.1469 44.0149C31.2247 42.0484 31.5291 40.7855 31.4798 39.2181C31.3276 34.2896 27.4605 30.8833 22.6883 31.0355C16.6573 31.2247 9.39623 38.7532 9.70477 48.6719C9.75003 50.0624 9.92692 51.3295 10.2149 52.4855C15.2092 58.0022 22.2358 61.6431 30.1098 62.2396C35.9475 60.269 40.2424 54.9086 40.0038 47.2484C39.938 45.2367 39.6624 43.3896 39.0453 41.3943L37.0048 34.5693C35.6184 29.7848 35.2728 27.1643 35.207 25.0127C34.9889 18.0437 37.4614 13.0206 42.0114 9.13294C43.5048 7.88642 45.0969 6.89085 46.7589 6.13389C42.4969 3.79718 37.6054 2.46838 32.3972 2.46838C15.8674 2.46838 2.46838 15.8715 2.46838 32.3972C2.46838 36.9513 3.48863 41.2709 5.3111 45.1339C6.20382 42.106 7.84528 39.3045 10.1984 36.7744H10.2108Z" fill="#003B7A"/>
<path fill-rule="evenodd" clip-rule="evenodd" d="M54.094 25.062C53.5099 25.0785 52.8969 25.0127 52.4978 24.951C52.3867 24.9551 52.1481 24.8646 52.1399 24.6794C52.1358 24.5313 52.2921 24.4326 52.5061 24.4244L53.0244 24.412C55.3447 24.338 58.0763 22.4332 59.2981 19.2449C56.8257 14.2095 52.9833 9.96804 48.2523 7.01013C44.8336 8.71741 42.1801 12.4446 42.3035 16.4022C42.3611 18.3604 43.1345 22.0177 44.525 24.9839L46.8782 30.2497C49.5852 36.0051 49.9842 39.1892 50.0624 41.781C50.3997 52.5924 42.7149 57.6896 40.2342 59.368C38.5228 60.4994 36.651 61.4661 34.6804 62.2478C50.1529 61.0877 62.3466 48.1741 62.3466 32.4054C62.3466 28.9826 61.7706 25.6956 60.7092 22.6307C58.9073 24.1199 56.6035 24.988 54.0981 25.0661L54.094 25.062Z" fill="#003B7A"/>
</svg>
