<svg width="166" height="29" viewBox="0 0 166 29" fill="none" xmlns="http://www.w3.org/2000/svg">
<path fill-rule="evenodd" clip-rule="evenodd" d="M152.618 10.5047C154.06 10.5047 155.3 9.2842 155.3 8.18446C155.3 7.37714 154.642 6.71602 153.627 6.71602C152.141 6.71602 151.634 8.23213 150.948 9.0617C147.106 13.7276 150.391 11.8365 152.618 10.5047ZM0 21.3114C0 23.4155 0.692026 24.8204 2.14067 26.0409C3.29712 26.9404 5.2717 27.789 8.495 27.789C11.3369 27.789 14.2004 26.9944 16.4917 25.5737C17.6636 24.8204 21.3113 22.5478 21.3113 17.4655C21.3113 16.2577 21.176 14.7543 20.0042 12.0208L18.9892 9.51622C18.3833 8.10499 18.0696 6.38229 18.0696 5.45418C18.0696 2.97819 20.3978 0.74057 22.7169 0.74057C23.8026 0.74057 24.6423 1.14741 25.2758 1.90388C25.8141 2.46646 26.2908 3.63294 26.2908 5.21262C26.2908 7.80622 24.4208 9.37955 22.9476 9.37955H22.7138C22.6092 9.37955 22.5231 9.41769 22.5231 9.48444C22.5231 9.57025 22.6308 9.62111 22.6954 9.62111C22.8676 9.65607 23.1536 9.69421 23.4397 9.69421C26.1616 9.69421 28.4499 7.64094 28.4499 4.47523C28.4499 1.71317 26.7122 0 23.8272 0C21.7696 0 19.7827 0.673823 18.0419 2.05644C15.8797 3.81729 14.6463 6.13119 14.6463 9.40179C14.6463 10.4125 14.7755 11.6394 15.3537 13.9088L16.1934 17.1286C16.4641 18.0757 16.544 18.9371 16.544 19.8906C16.544 24.3913 13.3176 27.0866 9.58686 27.0866C6.83414 27.0866 2.44823 25.5514 2.44823 20.1131C2.44823 15.4504 5.92989 12.0399 8.73798 12.0399C10.9555 12.0399 12.721 13.6831 12.721 15.9939C12.721 16.7249 12.5549 17.3224 12.0136 18.2219C11.7429 18.7019 11.6814 18.7591 11.2139 19.2486C11.0909 19.4011 10.9801 19.5283 10.8448 19.6332C10.8325 19.6618 10.7987 19.7412 10.7987 19.8207C10.7987 19.8938 10.8448 19.9574 10.9555 19.9574C11.0601 19.9574 11.583 19.7412 12.7486 18.4889C14.1235 17.0714 14.4803 16.0129 14.4803 14.7797C14.4803 12.6819 12.9886 11.1213 10.3742 11.1213C8.24894 11.1213 4.9303 12.3863 2.86037 14.5413C0.98729 16.4484 0 18.7178 0 21.3082L0 21.3114ZM26.5215 26.3873C25.8664 26.3873 25.405 25.9678 25.405 25.3194C25.405 25.0651 25.4542 24.5121 26.3493 22.7226C27.1981 20.9331 27.7733 20.0877 28.7821 18.8195C30.2338 17.0173 31.5933 15.8222 32.6698 15.142C33.5063 14.6208 33.7924 14.5699 34.0261 14.5699C34.6136 14.5699 35.0349 15.0372 35.0349 15.6506C35.0349 15.7841 35.0011 16.3943 34.2814 17.7356C33.8477 18.5589 32.6851 20.4659 31.987 21.4385C30.1662 24.0639 28.7606 25.2971 28.0255 25.7675C27.1366 26.3651 26.8537 26.3873 26.5246 26.3873H26.5215ZM53.7381 23.6062L52.5847 24.2927C51.622 25.2971 50.7977 25.9678 50.5363 26.1712C50.1426 26.4159 49.832 26.4763 49.6075 26.4763C49.2599 26.4763 49.0815 26.2824 49.0815 25.9201C49.0815 25.7675 49.1184 25.0301 50.8193 22.9451L52.5724 20.8092C54.9653 17.9041 55.2206 16.3848 55.2206 15.8445C55.2206 14.8909 54.5931 14.0804 52.8892 14.0804C51.6712 14.0804 49.8228 14.4237 46.092 17.955C47.2454 16.477 47.9497 15.1262 48.2849 14.0741L44.2066 14.1599C43.9236 15.2406 43.7575 16.1941 38.9164 22.0297L37.7815 23.3837L37.2525 24.0067C35.8469 25.4719 35.1211 25.9678 34.8412 26.1489C34.3029 26.4382 34.0015 26.4763 33.9308 26.4763C33.6048 26.4763 33.4048 26.257 33.4048 25.9551C33.4048 25.8565 33.4141 25.4751 33.9984 24.2165C34.1768 23.8637 34.8719 22.5478 36.5974 19.9351C38.0645 17.6752 38.5535 17.1317 40.5835 14.4523C39.9037 14.5477 39.2302 14.5731 38.5105 14.5731C37.9076 14.5731 37.2925 14.5731 36.6804 14.4809C36.336 14.9704 36.0345 15.3582 35.7762 15.7873C35.6378 15.0562 35.0042 14.3697 33.3802 14.3697C31.501 14.3697 29.2066 15.0403 27.0198 16.7313C26.2939 17.3034 25.4296 18.0503 24.0917 19.7635C23.4089 20.6471 22.76 21.5625 22.0218 22.3793L21.3697 23.6062L23.0152 21.7277C22.3878 23.2375 22.234 24.261 22.234 24.9984C22.234 26.5812 23.3197 27.5634 24.7161 27.5634C25.565 27.5634 26.2385 27.4871 28.0286 26.1489C29.1297 25.3226 30.1354 24.3309 30.9012 23.4155C30.4184 24.6742 30.323 25.5546 30.323 25.8756C30.323 26.9976 30.9751 27.6269 32.1838 27.6269C32.7067 27.6269 34.3891 27.2964 37.1633 24.5311L38.043 23.6094L38.8642 22.7258L35.7547 27.2614H40.0514L40.9771 25.7675C42.189 23.7715 44.5664 20.5549 45.3846 19.5664C46.4241 18.3872 47.8882 16.9633 48.411 16.477C49.9458 15.1802 50.8377 15.0372 51.2099 15.0372C51.6405 15.0372 51.8927 15.2851 51.8927 15.568C51.8927 15.711 51.8927 15.908 51.4898 16.5247C51.3237 16.7853 51.053 17.1699 50.0534 18.3968L47.9897 20.8537C47.1592 21.874 46.3565 23.0563 46.0674 23.6316C45.6183 24.5121 45.5414 24.9952 45.5414 25.4338C45.5414 26.6766 46.5287 27.6237 47.8236 27.6237C48.085 27.6237 48.7186 27.522 49.4783 27.1597C50.0104 26.9181 51.0746 26.222 52.8185 24.5279L53.7504 23.6062H53.7381ZM164.508 23.5808L163.364 24.2927C162.38 25.2971 161.546 25.9678 161.267 26.1553C160.91 26.4 160.587 26.4763 160.368 26.4763C160.006 26.4763 159.836 26.2824 159.836 25.9201C159.836 25.7453 159.858 25.0111 161.586 22.9451L163.349 20.8092C165.714 17.9041 166 16.3848 166 15.8445C166 14.8909 165.366 14.0804 163.653 14.0804C162.448 14.0804 160.571 14.4237 156.862 17.955C158.012 16.477 158.708 15.1261 159.055 14.0614L154.965 14.1599C154.682 15.2406 154.534 16.1941 149.665 22.0297L148.539 23.3837L148.118 23.8382C145.673 26.1553 145.328 26.2824 145.202 26.346C144.756 26.5812 144.458 26.6321 144.218 26.6321C143.56 26.6321 143.231 26.2221 143.231 25.7866C143.231 25.3512 143.501 24.9443 143.914 24.2006C144.32 23.5458 144.987 22.6082 145.987 21.4036L148.014 19.0483C149.831 16.8838 150.311 15.8413 150.68 14.4746C149.29 14.5667 147.857 14.6812 146.58 14.7002L146.267 15.3518C146.079 15.7841 145.91 16.2926 142.883 19.8938C141.893 21.0635 140.915 22.2427 139.885 23.3805L139.285 24.0607C137.384 25.9169 136.747 26.3142 136.686 26.3587C136.172 26.6511 135.794 26.7401 135.56 26.7401C134.982 26.7401 134.653 26.3842 134.653 25.901C134.653 24.8776 135.591 23.5998 138.949 18.9339L141.856 14.8846L143.975 14.821C144.077 14.821 144.218 14.7765 144.218 14.6748C144.218 14.5636 144.138 14.4809 143.975 14.4809H142.084L143.501 12.4626C145.098 10.1455 145.202 9.74507 145.513 8.61354C144.683 8.73432 143.791 8.79154 142.923 8.79154C142.382 8.79154 141.819 8.75022 141.281 8.7089C141.112 9.76414 140.85 10.635 139.558 12.4849L138.159 14.4682L136.504 14.4396C136.295 14.4396 136.228 14.535 136.228 14.6112C136.228 14.6939 136.264 14.7733 136.504 14.7733L137.938 14.7956L134.68 19.22C134.244 19.7825 133.865 20.3356 133.398 20.8982C133.013 21.394 132.54 21.9089 132.112 22.3698L131.27 23.3742L130.673 24.0861C130.202 24.6614 129.353 25.2971 129.034 25.4878C128.363 25.8629 128.099 25.8947 127.846 25.8947C127.363 25.8947 127.019 25.5101 127.019 25.0397C127.019 24.9094 127.108 23.6126 129.356 20.2466C130.984 17.7674 131.799 16.763 134.533 14.0105C133.149 14.5413 131.553 14.8147 130.86 14.8147C129.455 14.8147 128.486 14.4364 127.674 13.7912C125.493 17.6244 122.938 21.0062 121.732 22.3603L120.871 23.3678L120.32 23.9781C118.908 25.456 118.195 25.9519 117.915 26.1299C117.38 26.4191 117.085 26.4573 117.02 26.4573C116.691 26.4573 116.423 26.2252 116.423 25.9169C116.423 25.8375 116.497 25.456 117.081 24.1974C117.241 23.8446 117.927 22.5287 119.659 19.916C121.132 17.6562 121.63 17.1127 123.63 14.4333C122.962 14.5286 122.289 14.554 121.56 14.554C120.981 14.554 120.357 14.5413 119.751 14.4619C119.404 14.9513 119.102 15.3391 118.841 15.7682C118.687 15.0372 118.066 14.3506 116.417 14.3506C114.559 14.3506 112.256 15.0213 110.09 16.7122C109.374 17.2684 108.491 18.0312 107.135 19.7444C106.47 20.6248 106.427 20.4754 105.692 21.2923C103.293 24.1434 101.86 24.4231 101.476 24.4231C100.897 24.4231 100.454 24.083 100.454 23.1835C100.454 22.7989 100.47 22.462 100.9 21.0857C101.519 19.274 104.284 13.5751 107.227 9.46218C108.848 7.19596 110.816 5.06006 111.638 4.30359C112.302 3.7124 112.96 3.09261 113.732 2.65399C114.476 2.19947 115.381 1.84667 116.097 1.66868C116.097 1.66868 116.279 1.58921 116.248 1.50021C116.248 1.39851 116.11 1.39851 116.082 1.39851C115.9 1.39851 114.175 1.63371 112.683 2.14226C111.558 2.56817 109.1 3.71558 106.713 5.42558C105.339 6.38547 103.908 7.53606 101.62 9.90717C98.7997 12.7932 96.3607 15.9748 93.771 19.0197C93.1682 19.7222 92.513 20.4723 91.8641 21.1747C93.6572 18.5334 94.7614 16.032 95.7302 11.6776L96.8036 6.98301C97.388 4.30359 98.3168 3.09579 99.1872 2.36793L99.9931 1.69728C100.073 1.67185 100.085 1.60828 100.085 1.54154C100.085 1.50339 100.073 1.44618 99.9316 1.44618C99.9008 1.44618 99.8239 1.45572 99.787 1.45572C98.1169 2.12319 95.5641 3.48674 91.1167 9.1062L85.4759 16.1782C84.1995 17.7738 81.5975 20.539 80.3703 21.5879C77.8175 23.8478 75.6738 25.0365 74.8556 25.3575C73.6623 25.8375 72.3889 26.0695 71.4693 26.0695C68.2614 26.0695 66.0654 24.013 66.0654 20.752C66.0654 17.8087 67.9108 14.5572 70.4974 12.968C71.9584 12.0494 73.5423 11.6331 74.7326 11.6331C77.0055 11.6331 78.5587 13.2223 78.5587 15.2628C78.5587 16.156 78.3188 17.0332 77.5561 18.0344C77.2208 18.4794 76.7872 18.9117 76.3658 19.2168C76.335 19.239 76.1997 19.3566 76.1997 19.4647C76.1997 19.5346 76.252 19.6205 76.3996 19.6205C76.5472 19.6205 76.9963 19.6046 78.1681 18.6351C79.706 17.3955 80.3488 15.8922 80.3488 14.3888C80.3488 11.8778 78.5311 10.1869 76.0398 10.1869C71.0049 10.1869 63.4511 16.4484 63.4511 23.0404C63.4511 24.7822 64.1462 26.2824 65.441 27.4458C66.6344 28.466 67.9446 29 69.9192 29C72.7734 29 75.0771 27.6174 77.2331 26.0727C79.3553 24.5407 81.9451 22.0297 84.8669 18.2251L90.3693 10.9433C91.8672 8.96953 93.4388 7.25318 95.1889 5.60993C93.3712 7.73948 92.6392 8.88371 91.7349 10.7812C90.9629 12.3768 90.3816 13.8961 90.031 15.1484L87.9641 22.0615C87.472 23.7238 86.4263 25.5419 85.6328 26.4C85.399 26.6861 85.1191 26.9245 84.8669 27.1374C84.8423 27.147 84.7347 27.2455 84.7347 27.3663C84.7347 27.5125 84.7808 27.5951 84.9838 27.5951C85.0515 27.5951 86.6324 27.0675 88.8899 25.0969C89.5389 24.5438 90.9629 23.1517 93.2112 20.4977C93.8448 19.7794 95.0658 18.3109 99.5994 12.8758C101.008 11.1595 103.093 9.1062 104.699 7.67909C106.495 6.13119 107.858 5.19673 109.924 4.06203C105.308 7.82847 101.245 12.4404 98.2338 17.3987C96.3054 20.5422 95.8256 21.982 95.5426 22.872C95.2535 23.8732 95.2319 24.2832 95.2319 24.7854C95.2319 26.9277 96.2746 27.7159 97.5572 27.7159C98.2338 27.7159 99.1965 27.5506 100.811 26.5717C101.629 26.0758 102.5 25.1668 104.013 23.5967L106.104 21.7182C105.459 23.228 105.311 24.2514 105.311 24.9856C105.311 26.5717 106.397 27.5506 107.768 27.5506C108.633 27.5506 109.294 27.4743 111.105 26.1362C112.203 25.2939 113.197 24.3182 113.978 23.4028C113.498 24.6583 113.391 25.5419 113.391 25.8629C113.391 26.9849 114.061 27.6142 115.267 27.6142C115.784 27.6142 117.484 27.2741 120.234 24.5184L121.129 23.5967L121.775 22.8052C123.387 20.9522 125.121 18.6955 126.696 16.2863C127.234 16.7726 127.945 17.0618 128.729 17.0618C129.464 17.0618 130.098 16.9188 130.602 16.6963L128.6 18.3777C123.571 22.5796 123.147 24.7886 123.147 25.7103C123.147 26.969 123.928 27.6587 125.374 27.6587C126.112 27.6587 126.73 27.5506 127.76 26.969C128.495 26.5177 130.141 25.2272 130.959 24.2482L131.562 23.5967L132.266 22.7449C131.639 23.9399 131.408 24.9761 131.408 25.5133C131.408 27.0167 132.158 27.6873 133.65 27.6873C134.782 27.6873 136.341 27.4362 139.509 24.2832L140.195 23.5967L140.392 23.3487C139.894 24.2165 139.715 25.1001 139.715 25.5927C139.715 26.8705 140.503 27.7413 142.253 27.7413C142.723 27.7413 143.48 27.6142 144.538 27.1184C144.901 26.9118 145.805 26.3778 147.165 25.1636C147.586 24.7854 147.958 24.4135 148.349 24.0544L148.819 23.5967L149.619 22.7131L146.528 27.2487H150.831L151.754 25.7358C152.947 23.7588 155.315 20.5072 156.146 19.5569C157.142 18.3777 158.618 16.9474 159.16 16.4674C160.713 15.1706 161.608 15.0213 161.98 15.0213C162.411 15.0213 162.663 15.2787 162.663 15.5584C162.663 15.6856 162.663 15.8985 162.266 16.5119C162.057 16.7726 161.817 17.1572 160.833 18.3872L158.748 20.8441C157.871 21.8644 157.105 23.0468 156.807 23.6221C156.345 24.5025 156.275 24.9856 156.275 25.4243C156.275 26.6575 157.265 27.6142 158.56 27.6142C158.834 27.6142 159.492 27.5125 160.23 27.1502C160.738 26.9086 161.832 26.2125 163.546 24.5184L164.508 23.5712V23.5808ZM109.58 26.3841C108.928 26.3841 108.467 25.9646 108.467 25.3035C108.467 25.0492 108.522 24.5089 109.398 22.7194C110.263 20.93 110.844 20.0845 111.859 18.7909C113.283 17.011 114.676 15.7968 115.694 15.1357C116.571 14.6144 116.854 14.5636 117.097 14.5636C117.678 14.5636 118.103 15.0308 118.103 15.6442C118.103 15.7777 118.066 16.388 117.358 17.7166C116.912 18.5525 115.75 20.4564 115.067 21.429C113.237 24.0544 111.825 25.2876 111.093 25.758C110.207 26.3555 109.937 26.3778 109.577 26.3778L109.58 26.3841Z" fill="white"/>
</svg>
