<svg width="485" height="187" viewBox="0 0 485 187" fill="none" xmlns="http://www.w3.org/2000/svg">
<path d="M303.383 102.351C298.406 103.421 290.868 104.815 285.99 106.28C283.587 106.96 281.107 107.437 278.649 107.942C275.034 108.606 271.358 109.1 267.797 110.005C263.002 110.609 272.439 109.615 267.638 110.181C263.907 110.976 260.133 111.547 256.33 111.991C246.137 113.171 252.847 112.935 242.691 114.389C233.99 115.107 225.398 116.704 216.784 118.054C214.085 117.878 211.555 118.783 208.922 119.047C205.998 119.59 202.365 118.816 200.072 121.016C196.424 124.572 192.962 128.297 189.467 132C188.649 132.867 187.854 133.751 187.025 134.612C186.57 135.089 186.049 135.457 185.27 135.248C183.766 134.831 184.556 133.548 185.281 132.785C187.585 130.223 189.895 127.661 192.221 125.115C193.571 123.776 194.651 122.739 195.837 121.132C195.222 121.132 194.893 121.093 194.575 121.137C191.371 121.576 188.166 122.031 184.957 122.481C182.543 122.569 180.584 123.09 178.258 123.524C172.437 124.347 163.845 125.499 160.037 126.141C154.183 127.216 148.219 127.803 142.497 129.46C137.674 130.437 140.494 127.156 141.904 125.098C142.662 123.633 144.527 123.452 146.014 123.343C149.196 123.288 152.296 122.717 155.39 122.163C157.579 121.768 159.763 121.428 161.996 121.225C165.288 120.879 168.991 120.182 176.431 119.519C184.112 118.86 191.628 117.351 199.222 116.122C200.264 115.952 201.104 115.535 201.8 114.822C204.593 111.98 207.232 109.028 209.624 105.901C211.846 102.999 214.101 100.118 216.329 97.2215C217.42 95.6908 218.534 94.5496 219.335 92.7555C218.814 92.9421 218.545 92.9969 218.331 93.1231C215.078 95.016 211.874 96.9746 208.571 98.7961C206.349 100.02 203.995 101.051 201.696 102.17C200.237 102.878 198.64 102.966 197.033 103.032C194.481 102.999 192.951 100.206 193.11 97.8525C193.093 97.0734 192.83 96.4809 191.947 96.1407C190.943 95.7566 190.482 94.8898 190.169 94.0229C189.576 92.3989 189.834 90.8024 190.624 89.2716C190.8 89.0192 190.893 88.8821 191.255 88.7888C191.338 89.0247 191.48 89.2552 191.497 89.4856C191.59 90.7804 192.353 91.7735 193.296 92.6568C194.141 93.4413 194.662 93.4139 195.507 92.6348C196.533 91.6857 197.521 90.6981 198.541 89.7435C201.822 86.6765 205.41 83.9278 209.311 81.5192C210.513 80.8554 211.791 80.0927 213.201 79.994C215.802 79.9391 215.621 82.3696 214.397 83.862C212.022 86.8411 208.774 89.1235 205.751 91.4662C203.523 93.1451 201.213 94.7307 198.679 96.031C197.707 96.5302 197.219 98.3298 197.806 99.1747C199.803 102.307 214.798 92.0807 217.618 90.5994C221.08 88.6407 223.982 86.1279 226.747 83.4724C228.075 82.1666 228.915 80.4439 230.506 79.385C230.648 79.2753 231.032 79.2753 231.191 79.374C231.351 79.4728 231.438 79.7581 231.438 79.9611C231.438 80.175 231.323 80.4055 231.202 80.5975C230.549 81.6564 229.869 82.7043 229.211 83.7577C226.994 87.4391 224.608 91.0054 221.996 94.4289C216.713 101.479 211.089 108.178 205.35 114.888C205.8 115.009 206.058 115.146 206.31 115.135C209.037 114.987 211.791 115.064 214.48 114.455C215.078 114.317 215.741 114.422 216.367 114.35C223.615 113.379 230.862 112.414 238.137 111.662C242.505 111.613 246.746 110.735 251.003 110.016C263.6 107.915 259.414 107.975 272.016 105.934C277.552 105.188 268.9 106.258 274.43 105.435C283.203 104.261 294.467 102.236 303.333 102.105C303.344 102.187 303.355 102.269 303.366 102.351H303.383ZM209.41 83.8839C208.115 84.2296 207.226 85.0909 206.239 85.7987C204.785 86.8411 202.881 88.7724 202.47 89.7051C204.319 89.0796 205.74 88.2402 207.04 87.2032C208.17 86.3034 209.108 85.2994 209.41 83.8839Z" fill="white"/>
<path d="M22.2499 100.596C20.8179 102.741 19.0951 104.689 17.5589 106.757C17.1804 107.245 16.8621 107.783 16.1105 108.118C15.7264 107.426 15.7923 106.74 15.9679 106.016C17.8003 100.069 19.7096 94.138 21.5421 88.1907C21.6244 87.9164 21.5915 87.6146 21.6299 87.0769C20.1211 87.8012 19.3859 89.0027 18.349 90.1878C16.6372 92.4372 15.112 94.7854 13.691 97.205C11.639 100.678 9.31275 104.041 7.0633 107.41C5.28019 110.46 3.50257 113.511 1.73044 116.561C1.53293 116.896 1.37931 117.258 1.1379 117.56C1.01171 117.713 0.709955 117.867 0.523415 117.84C0.331388 117.812 0.0570646 117.565 0.0406051 117.395C-0.00328671 116.874 -0.0416921 116.325 0.0954699 115.826C1.18179 111.278 3.44771 107.053 5.70265 102.955C6.91516 101.007 7.93565 98.9771 9.05489 96.9965C11.3373 92.9255 14.3658 89.3209 17.3998 85.7657C19.364 83.5217 21.9481 82.0788 25.0919 81.5027C26.1343 81.2393 27.4401 81.2997 27.0231 82.6329C26.7159 83.807 26.244 84.9482 25.7886 86.0894C24.6968 88.9807 23.2539 91.7569 22.5132 94.7635C22.59 94.7964 22.6668 94.8348 22.7382 94.8677C22.9082 94.7416 23.1442 94.6428 23.2429 94.4782C24.2908 92.7938 25.2784 91.0766 26.3044 89.3867C29.1519 85.6779 31.533 81.6947 34.7261 78.1888C36.191 76.5264 37.8424 74.864 40.1632 74.3867C40.5802 75.1823 40.0864 75.6815 39.7737 76.1808C35.3571 82.9621 31.105 89.9793 28.1972 97.4903C26.5568 101.819 24.7188 106.093 23.4953 110.565C23.413 110.861 23.4404 111.393 23.6215 111.481C23.9287 111.634 24.4774 111.645 24.7791 111.486C25.6844 111.02 26.6665 110.559 27.3633 109.884C30.0516 107.273 32.6961 104.623 35.2583 101.912C38.5667 98.4778 44.706 93.3699 49.8743 93.9021C50.7631 94.0777 50.9661 94.5715 50.39 95.2079C49.567 96.1187 48.6947 96.9965 47.8662 97.9018C45.4193 100.694 43.307 103.695 42.1054 107.163C42.698 107.448 43.0601 107.19 43.3783 106.982C45.1559 105.83 46.9335 104.683 48.6727 103.482C51.3721 101.342 52.3597 97.9292 54.3128 95.2024C54.664 94.6647 55.4156 94.2917 56.0521 93.9515C57.4182 93.2218 57.7419 93.2602 59.0532 94.0667C60.7595 92.6457 62.7785 91.6527 64.9402 90.9065C65.5766 90.687 66.3502 90.6541 67.036 90.7364C67.9522 90.8462 68.1388 91.3674 67.9742 92.2013C67.7273 93.326 66.4435 94.7031 65.22 94.6099C61.9445 94.0996 59.8322 95.7401 58.0272 97.792C55.8984 100.206 54.2744 102.911 52.8699 105.725C51.9317 107.602 51.2404 109.539 50.6973 111.536C50.2748 113.077 48.6892 114.103 47.0707 113.977C45.9131 113.884 45.5509 113.478 45.9131 112.474C46.6373 110.521 47.5151 108.606 48.2942 106.669C48.2064 106.609 48.1131 106.548 48.0253 106.488C45.5345 107.898 43.5813 110.115 40.9039 111.212C39.3841 111.964 38.8958 110.844 38.029 109.747C36.5531 111.206 34.9785 112.348 33.3655 113.615C30.7923 115.069 30.2546 113.714 29.5908 111.464C26.9957 113.149 25.1358 115.552 22.4254 117.093C20.4832 118.322 18.3984 116.792 18.4148 114.707C18.3106 112.743 18.8263 110.883 19.5944 109.05C20.6314 106.57 21.575 104.052 22.5407 101.55C22.6229 101.331 22.5791 101.073 22.59 100.832C22.4748 100.755 22.3541 100.683 22.2389 100.607L22.2499 100.596ZM34.2159 108.408C34.6274 110.586 36.6135 108.589 37.4639 107.761C39.7353 105.034 41.9683 102.28 44.1903 99.5203C44.6566 98.84 45.4796 97.9402 44.9749 97.1062C44.6951 96.7331 44.2342 96.8429 43.8447 97.0623C42.7474 97.6768 41.7817 98.4998 40.7722 99.2405C38.7258 100.837 36.8878 102.609 35.5052 104.716C34.8194 105.764 34.3201 106.894 34.2159 108.408Z" fill="white"/>
<path d="M295.784 89.7984C293.704 93.1671 283.977 99.8277 281.288 94.1986C280.91 94.3631 280.559 94.4729 280.262 94.6539C277.596 96.2505 274.436 96.9418 271.336 97.046C269.284 97.2161 269.882 95.3781 269.794 93.9242C267.314 94.6046 260.835 100.354 259.688 95.8445C259.491 94.8679 259.447 94.1876 259.09 93.1561C256.643 94.3686 254.717 95.9378 252.089 96.7662C249.593 97.4301 246.274 98.4341 247.722 94.6045C244.403 95.7348 240.337 98.7962 237.117 95.9597C236.568 95.4824 236.14 95.5373 235.581 95.9158C234.198 96.843 232.826 97.7867 231.372 98.6152C229.469 99.7015 227.279 99.9868 225.079 100.124C223.807 100.206 222.819 99.109 222.973 97.8251C224.169 91.384 234.132 86.2212 239.904 83.7084C241.083 83.1872 242.279 82.6824 243.602 82.6166C244.523 82.6769 248.655 82.2051 247.382 84.0595C245.215 86.5504 242.938 89.0029 240.782 91.5157C237.194 95.9871 243.849 94.0504 246.021 93.3262C247.481 92.8544 248.583 91.993 249.467 90.7914C251.81 87.5873 255.162 85.4805 259.068 84.0321C260.1 83.6481 261.169 83.4505 262.272 83.7084C263.112 83.9059 263.693 83.6151 264.061 82.9897C266.897 78.0793 269.509 73.0756 272.729 68.3792C276.252 63.5291 280.367 58.8986 284.811 54.8495C285.145 54.6795 285.678 54.5094 285.946 54.6356C286.797 55.1019 286.769 56.1279 286.418 56.9344C285.03 60.8298 283.719 64.7526 281.689 68.4395C280.153 71.2322 278.348 73.8657 276.372 76.4279C273.936 79.5826 271.062 82.4081 268.258 85.283C266.431 87.1978 264.187 88.7889 262.558 90.8902C261.625 92.1137 261.323 94.1382 263.523 94.0669C265.91 93.809 268.351 92.7556 270.085 91.1645C273.048 87.9714 275.988 84.8606 279.911 82.7373C281.513 81.832 283.17 80.9981 284.827 80.1696C286.226 79.3028 294.001 76.982 293.161 80.2903C292.245 82.463 290.165 83.9279 288.816 85.8152C287.669 87.2746 281.897 94.9283 287.093 94.001C290.264 93.2988 293.035 91.598 295.515 89.6173C295.608 89.6777 295.696 89.738 295.789 89.7984H295.784ZM281.897 63.3207C281.738 63.0683 281.645 62.7391 281.453 62.6787C280.992 62.6184 280.498 63.0792 280.279 63.4852C276.477 68.9059 272.351 74.1839 268.988 79.8679C268.829 80.1312 268.648 80.4001 268.582 80.6908C268.461 81.2121 268.878 81.5138 269.405 81.2889C271.912 79.7362 273.783 77.2783 275.506 75.0068C278.167 71.3583 280.482 67.6056 281.897 63.3207ZM275.769 92.9312C276.427 92.9257 278.682 92.1686 279.236 91.6748C280.987 90.0947 282.715 88.4981 284.421 86.8796C285.173 86.2377 286.544 84.3064 284.542 84.5039C280.806 85.5683 277.991 88.5146 275.632 91.2797C275.176 91.8339 274.48 92.9751 275.774 92.9367L275.769 92.9312ZM238.664 88.8273C238.664 87.9988 238.033 87.5983 237.369 87.9659C236.233 88.5914 235.18 89.343 234.099 90.0563C232.124 91.5047 229.897 92.6898 228.229 94.4674C227.817 94.8789 227.219 95.3617 227.685 95.9323C228.135 96.4809 228.788 96.0475 229.293 95.8445C232.766 94.4509 235.701 92.41 238.099 89.76C238.379 89.4473 238.532 89.0467 238.664 88.8218V88.8273ZM253.159 94.5003C253.324 94.429 253.697 94.3302 253.988 94.1382C256.407 92.5581 258.925 91.0658 260.654 88.7121C261.844 86.8906 261.049 86.106 259.194 87.2966C258.273 87.6587 249.571 94.4948 253.159 94.5003Z" fill="white"/>
<path d="M135.458 91.7683C139.457 90.4625 142.404 87.604 146.376 86.183C148.433 85.4478 150.568 85.0528 152.762 84.8937C153.289 84.8553 153.87 84.9705 154.364 85.1516C155.889 85.7167 156.295 86.4957 155.972 87.6973C155.676 88.7946 155.248 89.7767 154.501 90.6764C152.932 92.5528 151.341 94.4182 149.871 96.3549C149.081 97.562 148.159 98.9665 148.027 100.426C149.19 100.366 150.03 99.9541 150.655 99.3725C152.559 97.6114 154.655 95.9928 156.016 93.8092C156.334 93.299 156.68 92.8107 157.223 92.3992C156.817 94.528 155.763 96.6018 154.266 98.3136C152.214 100.623 150.666 103.443 147.369 104.228C145.745 104.678 144.34 104.667 144.543 102.73C144.565 102.341 144.489 101.951 144.439 101.342C142.338 102.577 140.67 103.97 138.673 105.303C137.274 106.181 135.54 106.653 134.591 105.018C131.815 100.525 137.082 96.5964 139.205 93.0137C139.139 92.9533 139.073 92.8875 139.008 92.8271C138.761 92.9094 138.481 92.9533 138.278 93.0905C136.742 94.1494 135.205 95.2138 133.702 96.3165C133.357 96.5689 133.099 96.942 132.885 97.2986C131.387 99.8443 129.977 102.428 128.408 104.936C127.162 107.13 124.567 109.451 121.775 108.584C119.673 108.08 119.487 104.799 120.348 103.197C121.144 101.671 122.192 100.333 123.755 99.3231C125.67 98.0887 127.513 96.7555 129.401 95.4881C130.482 94.7639 131.255 93.8476 131.661 92.69C132.396 90.5996 133.121 88.5038 133.872 86.4189C135.057 83.3904 136.144 80.318 137.164 77.2291C137.29 76.845 137.301 76.4335 137.389 75.863C135.579 76.0385 134.18 76.7737 132.479 77.2675C130.657 77.8655 128.847 78.48 127.009 79.0396C126.076 79.3194 125.544 79.0835 125.253 78.4032C125.017 77.8655 125.132 77.5199 125.73 77.3004C129.028 76.0605 132.336 74.8425 135.644 73.619C136.851 73.01 139.046 72.9606 139.436 71.4902C140.099 69.3779 140.774 67.2656 141.444 65.1534C142.036 62.9642 142.991 62.0809 145.805 61.9712C144.922 64.6321 144.17 67.2766 143.38 69.954C143.298 70.2393 143.347 70.7386 143.539 70.8538C143.83 71.0239 144.412 71.0952 144.686 70.9416C146.584 69.8992 148.774 69.5535 150.804 68.8293C152.718 68.1874 154.49 67.6113 156.482 67.123C156.224 67.7759 155.972 67.9734 155.44 68.2916C153.75 69.367 151.934 70.2338 149.981 70.8593C147.588 71.6274 145.328 72.6259 143.139 73.7836C142.135 74.3158 141.531 75.051 141.169 76.0385C139.32 81.3385 137.142 86.3915 135.469 91.7683H135.458ZM151.171 87.9881C151.039 88.0594 150.71 88.1636 150.48 88.3557C147.83 90.5612 144.993 92.5967 142.673 95.104C140.846 97.1395 138.777 99.1256 137.702 101.611C137.587 103.334 139.244 102.418 139.99 101.77C143.753 98.9062 147.276 95.8228 150.184 92.2291C150.985 91.2416 151.473 90.0345 152.011 88.8933C152.29 88.3008 151.978 87.9606 151.177 87.9881H151.171ZM128.419 99.2738C128.325 99.2024 128.238 99.1311 128.144 99.0598C126.482 99.8005 125.253 101.156 123.876 102.297C123.667 102.478 123.481 102.697 123.355 102.928C123.058 103.471 123.382 103.954 124.04 103.921C125.017 103.855 125.813 103.098 126.455 102.45C127.294 101.485 128.09 100.481 128.413 99.2738H128.419Z" fill="white"/>
<path d="M99.1758 112.128C100.158 110.043 101.557 108.227 101.727 105.95C100.959 105.917 100.597 106.362 100.169 106.686C99.0716 107.514 98.0346 108.414 96.8715 109.154C94.7373 110.488 89.6019 113.258 87.9176 110.159C87.8737 110.065 87.7475 110.005 87.55 109.835C85.0317 112.035 82.6506 114.284 79.5013 115.755C78.607 116.183 77.6853 116.353 76.6977 116.254C75.1012 116.095 74.0532 115.151 74.0258 113.708C73.9819 111.36 74.4592 109.094 75.9132 107.092C78.9966 102.39 82.8865 98.4449 87.8682 95.5919C91.0119 93.8582 94.1173 91.8721 97.6341 90.8681C98.6052 90.6267 99.0661 90.912 99.2142 91.8172C99.4666 93.337 98.885 94.5934 97.892 95.8333C95.5712 98.7247 93.4918 101.759 92.208 105.171C91.8569 106.104 91.8569 106.219 92.0654 107.311C93.7113 107.371 95.2365 106.516 96.6082 105.731C98.3583 104.612 100.015 103.372 101.705 102.181C102.994 101.276 103.96 100.151 104.624 98.807C105.397 97.2434 106.149 95.6797 106.44 93.9734C106.676 92.6896 108.744 92.2287 109.309 93.4961C109.463 93.7594 109.595 94.0338 109.792 94.4233C110.121 94.2587 110.429 94.16 110.654 93.9789C112.919 92.1574 115.63 91.0217 118.346 89.8915C119.185 89.5403 120.063 89.255 120.88 88.8655C122.126 88.2236 123.037 87.1098 124.057 86.1826C124.145 86.2155 124.238 86.243 124.326 86.2759C123.245 93.6113 120.924 100.832 117.177 107.289C116.266 108.6 115.542 110.806 113.534 110.356C111.998 110.076 112.107 107.805 112.947 106.757C115.509 102.79 117.764 98.6863 119.728 94.4507C119.981 93.9021 120.452 93.2602 120.013 92.7335C119.531 92.1464 118.752 92.5853 118.121 92.6896C115.207 93.2876 111.855 94.3191 110.308 97.0074C108.903 99.7452 106.906 102.242 106.209 105.276C105.699 107.031 105.227 108.798 104.717 110.554C104.41 111.618 103.521 112.095 102.385 112.178C101.398 112.249 100.399 112.479 99.1594 112.145L99.1758 112.128ZM92.5975 96.9087C92.4933 96.8154 92.3891 96.7276 92.2848 96.6344C91.9008 96.8044 91.4618 96.9087 91.1491 97.1501C89.5855 98.3571 88.0054 99.5477 86.5295 100.837C83.2925 103.668 80.5931 106.932 78.7113 110.757C78.4644 111.217 78.201 111.788 78.7387 112.232C79.2819 112.682 79.8634 112.392 80.3627 112.112C81.3557 111.552 82.3982 111.025 83.287 110.351C85.0427 109.017 86.2442 107.262 87.4293 105.522C88.9216 103.333 90.3865 101.122 91.7965 98.8893C92.1751 98.2858 92.3342 97.5725 92.5921 96.9032L92.5975 96.9087Z" fill="white"/>
<path d="M65.7412 109.753C64.8359 109.879 64.5012 110.016 63.7715 110.323C62.0378 110.921 60.9186 110.268 60.946 108.584C60.957 107.843 61.0832 107.042 61.4343 106.384C62.4987 104.365 63.7002 102.406 64.8469 100.426C66.9921 96.9856 69.9987 94.2808 73.4387 91.9107C74.6073 91.0987 75.8418 90.6762 77.3177 90.9889C78.7002 91.2523 79.6549 89.9136 80.9716 89.7325C82.0799 89.4911 82.7273 90.1934 82.2555 91.1151C79.5342 95.2409 76.3081 99.1144 73.6198 103.262C68.0236 111.98 69.0934 109.034 63.6453 117.845C62.6688 119.436 55.1962 129.493 51.9921 132.516C51.608 132.906 51.0978 133.416 50.4943 133.136C49.781 132.807 50.1486 132.127 50.2474 131.594C50.4339 130.596 51.0265 129.773 51.6629 128.955C53.0784 127.123 65.0828 111.788 65.7467 109.747L65.7412 109.753ZM77.7127 93.5292C77.1092 93.5895 76.7087 93.5347 76.4288 93.6773C75.4852 94.1601 74.4921 94.6155 73.6911 95.2574C70.3114 98.0281 68.0345 101.803 65.3352 105.171C64.5506 106.176 64.5835 107.701 66.213 107.125C68.04 106.06 69.3129 104.261 70.7668 102.779C73.3345 99.8002 76.0558 97.1283 77.7072 93.5347L77.7127 93.5292Z" fill="white"/>
<path d="M220.866 63.4196C221.453 63.4196 222.056 63.3537 222.627 63.447C222.945 63.4964 223.434 63.7762 223.461 63.9902C223.499 64.2919 223.28 64.7528 223 64.9338C221.777 65.7184 220.345 66.0421 218.885 66.278C212.932 67.0022 207.194 68.7305 201.515 70.563C197.318 71.9291 193.176 73.4269 189.044 74.9412C183.887 77.1412 178.631 79.0396 173.287 80.7513C172.865 80.8885 172.234 81.0915 171.954 80.6581C171.899 80.5264 171.998 80.2576 172.13 80.1753C172.684 79.8351 173.26 79.5114 173.858 79.2371C184.556 74.3651 195.365 69.6687 206.667 66.3493C211.287 64.9887 216.043 63.6774 220.871 63.3208C220.871 63.3537 220.871 63.3921 220.871 63.425L220.866 63.4196Z" fill="white"/>
<path d="M173.161 110.586C170.072 110.312 172.376 107.317 173.117 105.857C174.823 102.988 176.568 100.14 178.307 97.2873C183.124 90.8297 187.486 84.0374 192.364 77.6292C192.852 77.0037 193.532 76.6416 194.377 76.5923C195.288 76.5374 195.639 77.0037 195.195 77.7334C194.284 79.2258 193.379 80.7236 192.369 82.1665C188.891 87.0166 185.215 91.7788 182.247 96.9471C179.981 101.007 176.601 104.595 174.95 108.979C174.725 109.709 173.814 110.422 173.166 110.586H173.161Z" fill="white"/>
<path d="M234.922 70.4147C236.217 70.2171 237.161 71.9893 236.716 72.8726C236.102 74.0851 235.136 74.93 233.649 75.1934C232.168 75.4512 231.235 74.5295 231.778 73.2621C232.102 72.4995 232.64 71.7918 233.161 71.1169C233.567 70.5902 234.225 70.3927 234.922 70.4201V70.4147Z" fill="white"/>
<path d="M126.515 82.2822C126.526 84.7401 122.159 85.3382 122.153 82.5675C121.956 80.0218 126.597 80.0437 126.515 82.2822Z" fill="white"/>
<path d="M41.4471 63.7983V50.2192H49.8963V52.3864H43.746V56.1995H49.2599V58.3283H43.746V63.8038H41.4471V63.7983Z" fill="white"/>
<path d="M54.5488 64.067C52.3268 64.067 51.0265 62.4211 51.0265 60.3527V54.4712H53.2485V59.9467C53.2485 61.0934 53.7862 62.0755 55.1249 62.0755C56.4636 62.0755 57.0781 61.2141 57.0781 59.9851V54.4712H59.3001V62.0919C59.3001 62.86 59.355 63.4526 59.3934 63.7982H57.2646C57.2262 63.5897 57.1878 63.1453 57.1878 62.7613C56.7269 63.6062 55.6351 64.0616 54.5433 64.0616L54.5488 64.067Z" fill="white"/>
<path d="M64.3971 63.798H62.175V54.471H64.3422V55.7164C64.9567 54.6411 66.065 54.2021 67.1019 54.2021C69.3788 54.2021 70.4706 55.8481 70.4706 57.9V63.798H68.2486V58.2841C68.2486 57.1374 67.7329 56.2157 66.3338 56.2157C65.0719 56.2157 64.3971 57.1923 64.3971 58.4158V63.798Z" fill="white"/>
<path d="M81.7892 62.0916C81.7892 62.9365 81.866 63.6443 81.8825 63.7979H79.7537C79.7153 63.5894 79.6605 62.975 79.6605 62.5909C79.2215 63.3755 78.2449 64.0284 76.9227 64.0284C74.2398 64.0284 72.4402 61.9215 72.4402 59.107C72.4402 56.2924 74.2618 54.224 76.8843 54.224C78.5138 54.224 79.3367 54.9702 79.622 55.5627V49.9336H81.7837V62.0971L81.7892 62.0916ZM77.1751 62.0752C78.629 62.0752 79.644 60.8681 79.644 59.085C79.644 57.3019 78.6455 56.1937 77.1915 56.1937C75.7376 56.1937 74.6623 57.3239 74.6623 59.107C74.6623 60.8901 75.6608 62.0752 77.1696 62.0752H77.1751Z" fill="white"/>
<path d="M86.9026 58.454L89.2947 58.0919C89.8324 58.0151 89.986 57.7463 89.986 57.4226C89.986 56.638 89.4484 56.0071 88.2249 56.0071C87.0014 56.0071 86.4034 56.7532 86.3101 57.6914L84.2801 57.2305C84.4502 55.623 85.9096 54.1855 88.2084 54.1855C91.0833 54.1855 92.1751 55.815 92.1751 57.6695V62.3055C92.1751 63.1505 92.2684 63.7046 92.2904 63.7979H90.222C90.2055 63.743 90.1287 63.3589 90.1287 62.6128C89.6898 63.3205 88.768 64.0886 87.2538 64.0886C85.3006 64.0886 84.0936 62.7499 84.0936 61.2741C84.0936 59.6062 85.317 58.6899 86.9081 58.4595L86.9026 58.454ZM89.986 59.9299V59.5074L87.5555 59.8695C86.8642 59.9848 86.3101 60.3688 86.3101 61.1314C86.3101 61.7624 86.7874 62.3385 87.6707 62.3385C88.9162 62.3385 89.986 61.7459 89.986 59.9244V59.9299Z" fill="white"/>
<path d="M96.3283 59.1235C96.3283 60.9999 97.5354 62.0533 98.9344 62.0533C100.333 62.0533 101.063 61.0383 101.272 60.3305L103.225 61.0383C102.786 62.4922 101.387 64.0833 98.9344 64.0833C96.1967 64.0833 94.1063 61.9545 94.1063 59.1235C94.1063 56.2925 96.1967 54.1802 98.8741 54.1802C101.381 54.1802 102.764 55.7493 103.148 57.2471L101.156 57.9768C100.948 57.1538 100.312 56.2321 98.896 56.2321C97.4805 56.2321 96.3283 57.2471 96.3283 59.1235Z" fill="white"/>
<path d="M106.286 49.7417C107.093 49.7417 107.74 50.3946 107.74 51.1956C107.74 51.9966 107.087 52.6331 106.286 52.6331C105.485 52.6331 104.849 52.0021 104.849 51.1956C104.849 50.3891 105.502 49.7417 106.286 49.7417ZM105.195 63.8035V54.4765H107.395V63.8035H105.195Z" fill="white"/>
<path d="M119.218 59.1235C119.218 61.9984 117.166 64.0833 114.373 64.0833C111.581 64.0833 109.545 61.9929 109.545 59.1235C109.545 56.2541 111.597 54.1802 114.373 54.1802C117.15 54.1802 119.218 56.2705 119.218 59.1235ZM116.98 59.1235C116.98 57.1868 115.756 56.1937 114.373 56.1937C112.991 56.1937 111.767 57.1922 111.767 59.1235C111.767 61.0547 113.013 62.0917 114.373 62.0917C115.734 62.0917 116.98 61.0767 116.98 59.1235ZM115.103 53.3023H113.282L114.988 50.4658H117.61L115.103 53.3023Z" fill="white"/>
<path d="M123.585 63.798H121.363V54.471H123.525V55.7164C124.139 54.6411 125.248 54.2021 126.285 54.2021C128.561 54.2021 129.653 55.8481 129.653 57.9V63.798H127.431V58.2841C127.431 57.1374 126.915 56.2157 125.516 56.2157C124.255 56.2157 123.58 57.1923 123.58 58.4158V63.798H123.585Z" fill="white"/>
<path d="M15.6056 152.69V139.72H17.7508V140.982C18.2117 140.175 19.2815 139.506 20.719 139.506C23.4787 139.506 25.0314 141.613 25.0314 144.372C25.0314 147.132 23.3251 149.277 20.6422 149.277C19.3035 149.277 18.2885 148.701 17.8057 147.993V152.684H15.6056V152.69ZM20.2965 141.486C18.8426 141.486 17.7892 142.633 17.7892 144.378C17.7892 146.123 18.8426 147.308 20.2965 147.308C21.7504 147.308 22.8039 146.161 22.8039 144.378C22.8039 142.595 21.7889 141.486 20.2965 141.486Z" fill="white"/>
<path d="M29.4151 143.703L31.8072 143.341C32.3449 143.264 32.4985 142.995 32.4985 142.672C32.4985 141.887 31.9608 141.256 30.7373 141.256C29.5139 141.256 28.9158 142.002 28.8226 142.94L26.7926 142.48C26.9626 140.872 28.422 139.435 30.7209 139.435C33.5958 139.435 34.6876 141.064 34.6876 142.918V147.555C34.6876 148.399 34.7809 148.954 34.8028 149.047H32.7344C32.718 148.992 32.6411 148.608 32.6411 147.856C32.2022 148.564 31.2805 149.332 29.7662 149.332C27.813 149.332 26.606 147.993 26.606 146.518C26.606 144.85 27.8295 143.933 29.4206 143.703H29.4151ZM32.4985 145.179V144.756L30.068 145.119C29.3767 145.234 28.8226 145.618 28.8226 146.38C28.8226 147.011 29.2999 147.587 30.1832 147.587C31.4286 147.587 32.4985 146.995 32.4985 145.173V145.179Z" fill="white"/>
<path d="M42.8241 141.926C42.5772 141.887 42.3248 141.871 42.0944 141.871C40.3716 141.871 39.5871 142.869 39.5871 144.609V149.053H37.3651V139.726H39.5322V141.218C39.9711 140.203 41.0081 139.61 42.2316 139.61C42.5004 139.61 42.7308 139.649 42.8241 139.671V141.931V141.926Z" fill="white"/>
<path d="M46.9444 143.703L49.3365 143.341C49.8742 143.264 50.0278 142.995 50.0278 142.672C50.0278 141.887 49.4901 141.256 48.2666 141.256C47.0431 141.256 46.4451 142.002 46.3519 142.94L44.3219 142.48C44.4919 140.872 45.9513 139.435 48.2502 139.435C51.1251 139.435 52.2169 141.064 52.2169 142.918V147.555C52.2169 148.399 52.3102 148.954 52.3321 149.047H50.2637C50.2473 148.992 50.1704 148.608 50.1704 147.856C49.7315 148.564 48.8098 149.332 47.2955 149.332C45.3423 149.332 44.1353 147.993 44.1353 146.518C44.1353 144.85 45.3588 143.933 46.9499 143.703H46.9444ZM50.0278 145.179V144.756L47.5973 145.119C46.906 145.234 46.3519 145.618 46.3519 146.38C46.3519 147.011 46.8292 147.587 47.7125 147.587C48.9579 147.587 50.0278 146.995 50.0278 145.173V145.179Z" fill="white"/>
<path d="M73.5814 146.018C73.3619 144.625 72.1878 142.567 69.1757 142.567C66.8934 142.567 65.3078 144.087 65.3078 145.799C65.3078 147.225 66.1966 148.3 67.9358 148.685L71.1673 149.348C75.1286 150.138 77.2518 152.646 77.2518 155.811C77.2518 159.295 74.4318 162.626 69.2964 162.626C63.5905 162.626 60.9625 158.95 60.6168 155.718L64.1666 154.703C64.386 157.046 66.0704 159.202 69.3019 159.202C71.9958 159.202 73.3893 157.841 73.3893 156.097C73.3893 154.637 72.314 153.469 70.3773 153.057L67.2061 152.393C63.7825 151.697 61.5001 149.447 61.5001 146.089C61.5001 142.32 64.9566 139.215 69.1373 139.215C74.4318 139.215 76.4892 142.446 76.994 144.948L73.5704 146.024L73.5814 146.018Z" fill="white"/>
<path d="M78.5906 162.148V146.715H82.2336V162.148H78.5906ZM81.7892 144.784H78.7771L81.5972 140.093H85.937L81.7837 144.784H81.7892Z" fill="white"/>
<path d="M88.4443 162.148H84.7684V146.715H88.351V148.772C89.366 147 91.204 146.271 92.9158 146.271C96.685 146.271 98.4955 148.997 98.4955 152.388V162.148H94.8196V153.024C94.8196 151.121 93.9637 149.601 91.6484 149.601C89.5581 149.601 88.4498 151.219 88.4498 153.244V162.148H88.4443Z" fill="white"/>
<path d="M114.999 159.328C114.999 160.722 115.125 161.896 115.158 162.149H111.641C111.575 161.797 111.482 160.788 111.482 160.151C110.752 161.452 109.139 162.527 106.95 162.527C102.512 162.527 99.5379 159.043 99.5379 154.385C99.5379 149.727 102.55 146.304 106.89 146.304C109.584 146.304 110.944 147.538 111.422 148.52V139.204H115.004V159.323L114.999 159.328ZM107.362 159.296C109.77 159.296 111.449 157.299 111.449 154.352C111.449 151.406 109.803 149.568 107.395 149.568C104.986 149.568 103.214 151.439 103.214 154.385C103.214 157.331 104.86 159.296 107.367 159.296H107.362Z" fill="white"/>
<path d="M126.625 150.358C126.213 150.292 125.802 150.265 125.423 150.265C122.57 150.265 121.27 151.911 121.27 154.797V162.148H117.594V146.715H121.177V149.184C121.906 147.505 123.618 146.523 125.643 146.523C126.087 146.523 126.466 146.589 126.625 146.616V150.358Z" fill="white"/>
<path d="M142.124 154.418C142.124 159.169 138.733 162.626 134.108 162.626C129.483 162.626 126.125 159.175 126.125 154.418C126.125 149.661 129.516 146.243 134.108 146.243C138.7 146.243 142.124 149.7 142.124 154.418ZM138.415 154.418C138.415 151.219 136.385 149.568 134.108 149.568C131.831 149.568 129.801 151.214 129.801 154.418C129.801 157.622 131.859 159.328 134.108 159.328C136.358 159.328 138.415 157.65 138.415 154.418Z" fill="white"/>
<path d="M143.452 162.148V146.715H146.968V148.679C147.857 147.093 149.789 146.271 151.533 146.271C153.563 146.271 155.335 147.187 156.158 148.997C157.36 146.967 159.17 146.271 161.162 146.271C163.949 146.271 166.61 148.043 166.61 152.13V162.143H163.06V152.734C163.06 150.929 162.144 149.562 160.081 149.562C158.15 149.562 156.883 151.082 156.883 152.986V162.143H153.272V152.734C153.272 150.961 152.384 149.562 150.293 149.562C148.329 149.562 147.095 151.022 147.095 152.986V162.143H143.452V162.148Z" fill="white"/>
<path d="M182.554 157.743C181.731 160.437 179.289 162.62 175.58 162.62C171.4 162.62 167.691 159.581 167.691 154.352C167.691 149.475 171.301 146.238 175.202 146.238C179.953 146.238 182.746 149.376 182.746 154.254C182.746 154.857 182.68 155.362 182.653 155.428H171.372C171.466 157.77 173.304 159.449 175.586 159.449C177.868 159.449 178.944 158.275 179.454 156.755L182.559 157.737L182.554 157.743ZM179.037 152.739C178.971 150.934 177.77 149.316 175.235 149.316C172.92 149.316 171.592 151.088 171.466 152.739H179.037Z" fill="white"/>
<path d="M203.94 159.328C203.94 160.722 204.066 161.896 204.099 162.149H200.582C200.517 161.797 200.423 160.788 200.423 160.151C199.694 161.452 198.081 162.527 195.891 162.527C191.453 162.527 188.479 159.043 188.479 154.385C188.479 149.727 191.491 146.304 195.831 146.304C198.525 146.304 199.886 147.538 200.363 148.52V139.204H203.946V159.323L203.94 159.328ZM196.303 159.296C198.712 159.296 200.39 157.299 200.39 154.352C200.39 151.406 198.744 149.568 196.336 149.568C193.927 149.568 192.155 151.439 192.155 154.385C192.155 157.331 193.801 159.296 196.308 159.296H196.303Z" fill="white"/>
<path d="M220.197 157.743C219.374 160.437 216.932 162.62 213.223 162.62C209.043 162.62 205.334 159.581 205.334 154.352C205.334 149.475 208.944 146.238 212.845 146.238C217.596 146.238 220.389 149.376 220.389 154.254C220.389 154.857 220.323 155.362 220.295 155.428H209.015C209.108 157.77 210.946 159.449 213.229 159.449C215.511 159.449 216.587 158.275 217.097 156.755L220.202 157.737L220.197 157.743ZM216.68 152.739C216.614 150.934 215.412 149.316 212.878 149.316C210.562 149.316 209.235 151.088 209.108 152.739H216.68Z" fill="white"/>
<path d="M227.642 162.149V139.682H235.597C241.715 139.682 246.526 143.736 246.526 150.962C246.526 158.188 241.649 162.149 235.564 162.149H227.642ZM235.438 158.665C239.333 158.665 242.565 156.163 242.565 150.962C242.565 145.761 239.366 143.166 235.465 143.166H231.444V158.659H235.438V158.665Z" fill="white"/>
<path d="M262.848 154.418C262.848 159.169 259.458 162.626 254.833 162.626C250.208 162.626 246.85 159.175 246.85 154.418C246.85 149.661 250.24 146.243 254.833 146.243C259.425 146.243 262.848 149.7 262.848 154.418ZM259.14 154.418C259.14 151.219 257.11 149.568 254.833 149.568C252.556 149.568 250.526 151.214 250.526 154.418C250.526 157.622 252.583 159.328 254.833 159.328C257.082 159.328 259.14 157.65 259.14 154.418Z" fill="white"/>
<path d="M276.345 146.715L279.988 157.392L283.061 146.715H286.802L281.859 162.148H278.183L274.348 151.06L270.612 162.148H266.843L261.839 146.715H265.767L268.906 157.392L272.549 146.715H276.351H276.345Z" fill="white"/>
<path d="M291.049 162.148H287.373V146.715H290.956V148.772C291.971 147 293.809 146.271 295.52 146.271C299.29 146.271 301.095 148.997 301.095 152.388V162.148H297.419V153.024C297.419 151.121 296.563 149.601 294.248 149.601C292.157 149.601 291.049 151.219 291.049 153.244V162.148Z" fill="white"/>
<path d="M404.262 123.568C402.397 123.568 400.345 123.283 398.09 122.624C382.475 118.071 372.386 112.474 370.312 98.6594C369.785 95.1425 370.619 92.2402 372.797 90.0401C378.575 84.1915 391.413 85.6674 391.539 85.6839C391.874 85.7277 392.203 85.7716 392.527 85.8155C392.905 85.8649 393.278 85.9143 393.646 85.9637C393.964 84.9157 394.447 83.9282 395.034 83.0778C395.489 82.3371 402.062 71.814 409.749 71.6878C413.178 71.6275 416.261 73.6301 418.873 77.6352C428.842 92.9205 420.606 111.613 420.25 112.398C420.222 112.474 415.921 123.557 404.257 123.557L404.262 123.568ZM387.874 87.456C383.754 87.456 377.444 88.1473 374.202 91.4282C372.463 93.1894 371.832 95.4608 372.265 98.3686C374.18 111.141 383.776 116.392 398.644 120.731C404.784 122.52 409.974 121.543 414.067 117.824C417.145 115.026 418.417 111.69 418.428 111.657C418.538 111.415 426.592 93.0906 417.221 78.7215C415.032 75.3693 412.569 73.6685 409.891 73.6685C409.859 73.6685 409.826 73.6685 409.787 73.6685C403.077 73.7782 396.773 84.0269 396.707 84.1312C396.696 84.1476 396.685 84.1641 396.674 84.1806C396.23 84.817 395.857 85.5522 395.599 86.3258C397.24 86.7373 398.633 87.456 399.456 89.0306C400.356 90.7479 399.577 92.4542 398.386 93.1894C397.283 93.8697 395.566 93.8587 394.409 92.2402C393.481 90.9399 393.169 89.4201 393.284 87.9114C392.966 87.8675 392.631 87.8236 392.28 87.7742C391.951 87.7303 391.616 87.6864 391.276 87.6425C390.612 87.5493 389.394 87.456 387.88 87.456H387.874ZM395.226 88.2735C395.193 89.2775 395.418 90.2596 396.011 91.0935C396.565 91.8671 397.13 91.6422 397.344 91.5105C397.772 91.2471 398.063 90.6491 397.7 89.9523C397.234 89.058 396.411 88.5862 395.221 88.2735H395.226Z" fill="#F5D72C"/>
<path d="M404.257 123.897C402.271 123.897 400.164 123.579 397.997 122.942C382.262 118.35 372.084 112.699 369.988 98.7139C369.445 95.0874 370.312 92.0917 372.567 89.8149C378.465 83.8456 391.462 85.3434 391.589 85.3653C391.918 85.4092 392.247 85.4531 392.565 85.4915C392.856 85.5299 393.136 85.5628 393.421 85.6012C393.739 84.6466 394.2 83.7194 394.765 82.8964C395.473 81.7443 401.964 71.4955 409.749 71.3638C413.282 71.298 416.475 73.3554 419.153 77.4648C429.22 92.8983 420.914 111.75 420.557 112.545C420.53 112.633 416.113 123.897 404.268 123.902L404.257 123.897ZM387.803 85.8372C383.584 85.8372 376.775 86.4846 373.028 90.2757C370.927 92.399 370.126 95.2081 370.636 98.6152C372.682 112.255 382.69 117.796 398.178 122.311C400.29 122.926 402.337 123.238 404.257 123.238C415.718 123.238 419.899 112.403 419.937 112.293C420.299 111.486 428.463 92.9586 418.593 77.8214C416.047 73.915 413.101 71.9619 409.749 72.0222C402.189 72.1484 395.583 82.7977 395.308 83.253C394.716 84.1144 394.25 85.08 393.953 86.0621L393.871 86.3309L393.591 86.2925C393.224 86.2377 392.851 86.1938 392.477 86.1444C392.148 86.1005 391.819 86.0621 391.49 86.0127C391.446 86.0127 389.965 85.8372 387.798 85.8372H387.803ZM404.312 121.933C402.496 121.933 400.575 121.636 398.551 121.049C383.562 116.677 373.884 111.366 371.942 98.4231C371.486 95.4056 372.15 93.0409 373.972 91.2029C377.472 87.6587 384.187 87.132 387.88 87.132C389.811 87.132 391.002 87.2746 391.32 87.3185C391.66 87.3624 391.989 87.4063 392.324 87.4502C392.675 87.4941 393.015 87.538 393.333 87.5874L393.641 87.6312L393.619 87.9385C393.503 89.4912 393.871 90.9176 394.683 92.0533C395.72 93.5018 397.245 93.5182 398.222 92.9147C399.286 92.2618 399.983 90.7311 399.176 89.1894C398.496 87.8946 397.371 87.11 395.528 86.6492L395.182 86.5614L395.298 86.2212C395.555 85.4421 395.945 84.674 396.417 83.9937C396.505 83.8565 402.918 73.4487 409.793 73.339H409.897C412.695 73.339 415.252 75.0892 417.507 78.5402C426.889 92.9257 419.076 111.026 418.741 111.788C418.741 111.799 417.43 115.223 414.303 118.065C411.472 120.638 408.13 121.933 404.328 121.933H404.312ZM387.874 87.7904C384.983 87.7904 377.894 88.1689 374.432 91.6638C372.77 93.3482 372.167 95.5208 372.589 98.3244C374.476 110.921 383.995 116.117 398.732 120.418C404.756 122.174 409.842 121.219 413.842 117.582C416.854 114.844 418.105 111.574 418.116 111.547C418.456 110.779 426.132 92.997 416.942 78.9077C414.818 75.6543 412.443 74.0028 409.886 74.0028H409.787C403.275 74.1071 397.048 84.2077 396.987 84.3064L396.943 84.3778C396.576 84.91 396.263 85.5025 396.027 86.106C397.256 86.4571 398.831 87.1429 399.747 88.8876C400.74 90.7805 399.873 92.6678 398.556 93.4798C397.328 94.237 395.418 94.2315 394.14 92.4374C393.289 91.2468 392.878 89.7874 392.938 88.2018C392.713 88.1689 392.477 88.1415 392.236 88.1086C391.907 88.0647 391.567 88.0208 391.227 87.9769C390.59 87.8891 389.378 87.7958 387.874 87.7958V87.7904ZM396.889 91.9765C396.516 91.9765 396.104 91.79 395.747 91.2852C395.144 90.4403 394.859 89.4253 394.902 88.2622L394.919 87.8507L395.319 87.9549C396.697 88.3171 397.525 88.8822 398.008 89.7984C398.452 90.6433 398.101 91.4389 397.531 91.79C397.349 91.8997 397.13 91.9765 396.9 91.9765H396.889ZM395.561 88.7176C395.599 89.5515 395.841 90.2867 396.285 90.9067C396.576 91.3127 396.878 91.4224 397.179 91.2359C397.41 91.0932 397.723 90.6927 397.415 90.1111C397.075 89.4582 396.51 89.0303 395.561 88.7231V88.7176Z" fill="#F5D72C"/>
<path d="M367.207 174.043C366.104 174.043 365.078 173.626 364.239 172.798C361.545 170.131 361.051 163.504 365.16 154.319C360.541 158.829 353.606 164.426 347.231 164.969C344.882 165.166 343.972 164.179 343.621 163.312C341.366 157.677 359.564 138.315 364.475 134.36C364.897 134.019 365.523 134.085 365.863 134.508C366.203 134.93 366.137 135.556 365.715 135.896C363.026 138.063 357.545 143.632 352.69 149.683C346.594 157.288 344.954 161.326 345.453 162.571C345.634 163.015 346.424 163.048 347.061 162.994C356.815 162.171 368.798 147.489 368.913 147.341C369.242 146.935 369.829 146.858 370.252 147.16C370.674 147.461 370.795 148.043 370.521 148.487C362.741 161.002 363.388 169.177 365.627 171.388C366.779 172.529 368.178 172.03 369.155 171.41C375.08 167.641 382.174 157.99 382.245 157.891C382.569 157.452 383.183 157.353 383.628 157.677C384.067 158.001 384.166 158.615 383.842 159.06C383.546 159.466 376.457 169.111 370.213 173.078C369.204 173.72 368.172 174.043 367.207 174.043Z" fill="#F5D72C"/>
<path d="M367.207 174.372C366 174.372 364.897 173.906 364.008 173.028C360.426 169.479 361.786 161.77 364.233 155.653C359.581 159.998 353.2 164.788 347.252 165.292C344.564 165.523 343.631 164.222 343.313 163.432C340.85 157.293 360.244 137.344 364.266 134.102C364.54 133.882 364.881 133.778 365.232 133.816C365.583 133.855 365.896 134.025 366.115 134.299C366.57 134.864 366.483 135.698 365.917 136.154C363.24 138.31 357.787 143.857 352.942 149.892C346.929 157.392 345.31 161.348 345.755 162.456C345.815 162.609 346.237 162.736 347.028 162.675C356.607 161.863 368.535 147.291 368.655 147.143C369.094 146.605 369.873 146.496 370.444 146.896C371.009 147.297 371.168 148.076 370.8 148.663C363.125 161.018 363.695 169.018 365.857 171.157C366.658 171.947 367.706 171.942 368.973 171.135C374.8 167.427 381.905 157.798 381.976 157.699C382.185 157.414 382.492 157.227 382.838 157.172C383.189 157.117 383.535 157.205 383.82 157.408C384.407 157.836 384.533 158.665 384.105 159.246C383.803 159.658 376.698 169.336 370.389 173.352C369.347 174.016 368.244 174.367 367.207 174.367V174.372ZM366.164 152.876L365.457 154.451C361.089 164.217 362.192 170.307 364.469 172.562C365.907 173.983 368.041 174.071 370.038 172.803C376.243 168.859 383.277 159.274 383.573 158.868C383.787 158.577 383.721 158.16 383.43 157.946C383.288 157.842 383.112 157.798 382.942 157.825C382.766 157.853 382.613 157.946 382.514 158.089C382.443 158.187 375.36 167.86 369.33 171.69C367.81 172.655 366.417 172.633 365.396 171.624C363.086 169.341 362.362 160.991 370.241 148.312C370.422 148.015 370.345 147.631 370.065 147.428C369.78 147.225 369.39 147.28 369.171 147.549C369.05 147.697 356.947 162.489 347.088 163.323C346.007 163.416 345.349 163.202 345.146 162.697C344.454 160.969 347.176 156.031 352.432 149.48C357.298 143.412 362.801 137.822 365.506 135.643C365.643 135.534 365.731 135.375 365.747 135.199C365.764 135.023 365.714 134.853 365.605 134.716C365.495 134.579 365.336 134.491 365.16 134.475C364.985 134.458 364.815 134.508 364.678 134.617C358.972 139.21 341.859 158.045 343.922 163.191C344.361 164.283 345.491 164.782 347.198 164.639C353.458 164.113 360.294 158.61 364.924 154.083L366.159 152.876H366.164Z" fill="#F5D72C"/>
<path d="M432.435 185.735C428.463 185.735 423.575 180.863 420.925 175.596C420.491 177.73 419.586 179.98 417.715 180.693C415.416 181.571 412.541 179.936 408.92 175.711C403.961 169.917 401.278 164.069 399.824 159.323C399.121 165.292 397.333 173.133 393.026 180.984C393.009 181.011 392.993 181.044 392.971 181.072C392.647 181.538 389.723 185.625 386.623 184.654C383.403 183.645 381.921 177.856 381.96 166.445C382.048 141.234 390.853 125.718 391.226 125.066C391.501 124.594 392.104 124.435 392.576 124.703C393.048 124.978 393.213 125.581 392.938 126.053C392.85 126.207 384.023 141.799 383.935 166.45C383.886 180.232 386.212 182.454 387.21 182.767C388.544 183.189 390.53 181.099 391.314 179.991C397.689 168.337 398.304 156.437 398.238 151.477C398.101 149.991 398.123 149.08 398.128 148.943C398.145 148.421 398.562 148.005 399.083 147.988C399.593 147.977 400.049 148.356 400.098 148.877C400.114 149.02 400.197 149.892 400.224 151.324C400.647 155.609 402.49 165.183 410.413 174.433C414.303 178.976 416.212 179.151 417.002 178.849C418.79 178.169 419.378 173.851 419.334 171.289C419.323 170.784 419.696 170.356 420.195 170.291C420.7 170.225 421.161 170.543 421.281 171.031C422.818 177.231 429.154 184.237 432.786 183.738C434.904 183.447 435.969 180.303 435.799 174.888C435.206 156.415 425.824 143.725 425.731 143.599C425.418 143.182 425.484 142.595 425.879 142.255C426.274 141.915 426.861 141.942 427.229 142.31C437.115 152.394 449.175 158.977 451.221 157.617C451.419 157.485 451.567 156.81 450.848 155.126C447.616 147.56 442.832 142.809 441.126 141.273C440.852 141.059 440.61 140.856 440.413 140.653C440.04 140.285 440.012 139.692 440.358 139.297C440.703 138.902 441.296 138.848 441.707 139.171C441.762 139.215 442.059 139.451 442.53 139.874C447.287 143.484 462.046 148.493 466.501 145.552C467.006 145.217 468.547 144.202 467.033 140.301C463.588 131.419 455.566 126.585 450.502 124.325C448.494 123.727 446.865 123.123 445.855 122.597C445.411 122.366 445.208 121.834 445.389 121.368C445.57 120.901 446.075 120.638 446.558 120.764C446.788 120.824 448.796 121.362 451.561 122.602C454.891 123.562 459.138 124.462 463.154 125.005C471.976 126.196 476.113 125.269 476.98 124.111C477.737 123.101 476.108 121.143 475.065 120.062C463.856 108.42 445.444 102.664 445.257 102.609C444.774 102.461 444.478 101.973 444.577 101.474C444.676 100.98 445.131 100.634 445.636 100.684C459.379 101.94 481.309 92.8873 481.753 88.4104C481.858 87.3789 479.97 86.0676 474.368 85.4641C450.519 82.9074 433.341 89.151 433.171 89.2114C432.71 89.387 432.183 89.184 431.953 88.745C431.722 88.3061 431.848 87.763 432.254 87.4777C450.864 74.3046 457.882 61.7132 456.422 58.6627C455.901 57.5764 453.981 57.933 452.883 58.2457C442.519 61.1755 433.209 71.2377 433.116 71.3365C432.775 71.7095 432.21 71.7644 431.799 71.4626C431.393 71.1609 431.278 70.6068 431.53 70.1678C443.205 50.208 444.204 40.0032 442.092 38.2585C441.219 37.5398 438.893 37.9842 434.987 41.3967C423.097 51.7991 414.434 69.504 414.346 69.685C414.121 70.1459 413.584 70.3599 413.106 70.1788C412.629 69.9978 412.366 69.482 412.508 68.9882C417.402 51.6345 412.964 27.3953 407.741 25.3982C405.82 24.663 403.9 27.8945 402.929 29.8861C394.085 47.9915 399.017 64.5552 399.072 64.7198C399.226 65.2245 398.957 65.7622 398.463 65.9432C397.964 66.1188 397.415 65.8774 397.218 65.3891C387.666 42.088 381.96 36.7058 380.264 37.0899C379.699 37.2215 378.734 38.7852 379.107 43.734C380.061 56.3529 385.608 69.4985 385.663 69.6302C385.872 70.1185 385.663 70.6781 385.18 70.9085C384.703 71.1389 384.132 70.9524 383.88 70.4861C370.603 45.8079 359.707 35.1751 357.358 36.1517C357.342 36.1572 355.861 36.8704 358.077 44.2113C363.882 63.4634 374.855 75.4568 374.964 75.5775C375.332 75.9725 375.31 76.598 374.915 76.9656C374.52 77.3387 373.9 77.3222 373.527 76.9327C367.393 70.5409 359.076 64.4564 350.703 60.2538C342.194 55.9743 336.746 55.2391 335.122 56.4077C333.904 57.2856 334.946 59.7545 335.676 61.1481C343.137 75.3635 360.041 84.718 360.211 84.8112C360.656 85.0527 360.842 85.5903 360.65 86.0567C360.458 86.523 359.942 86.7699 359.46 86.6273C337.179 80.06 321.636 78.831 320.012 81.459C319.716 81.9418 320.198 82.9404 321.312 84.1364C328.988 92.3661 347.302 96.6181 347.488 96.662C348.004 96.7773 348.339 97.282 348.24 97.8032C348.141 98.3244 347.647 98.6756 347.126 98.5988C343.456 98.0721 335.764 97.6277 328.73 97.8416C319.107 98.1324 316.144 99.4986 315.919 100.184C315.848 100.398 316.325 101.358 319.31 102.939C334.189 110.806 359.01 106.154 359.257 106.104C359.778 106.006 360.283 106.329 360.403 106.845C360.524 107.361 360.222 107.876 359.712 108.025C332.987 115.656 320.676 128.566 321.57 133.345C321.927 135.265 324.653 136.137 329.048 135.731C347.581 134.036 364.847 123.65 365.017 123.546C365.484 123.26 366.093 123.409 366.373 123.875C366.658 124.341 366.51 124.95 366.043 125.23C365.868 125.334 348.229 135.951 329.229 137.695C321.663 138.392 319.963 135.49 319.628 133.701C318.443 127.364 330.233 116.655 349.683 109.264C340.839 109.906 327.885 109.703 318.388 104.678C316.188 103.515 313.34 101.715 314.043 99.5699C314.333 98.6701 315.112 96.278 328.67 95.8665C331.819 95.7732 335.1 95.8062 338.106 95.9214C332.055 93.7762 324.374 90.3142 319.864 85.4806C318.004 83.4835 317.483 81.7772 318.328 80.4166C321.153 75.8409 339.599 79.2754 353.573 82.9404C347.763 78.8858 338.929 71.6053 333.92 62.0698C331.643 57.73 332.686 55.7219 333.959 54.8057C338.66 51.4205 354.566 58.4652 367.327 68.6645C363.695 63.0958 359.229 54.9209 356.179 44.7874C354.324 38.637 354.462 35.219 356.596 34.3302C358.938 33.3591 362.878 36.201 368.298 42.7684C372.046 47.3112 376.161 53.2914 380.259 60.1166C378.893 55.4312 377.565 49.6539 377.126 43.8821C376.632 37.3203 378.306 35.5207 379.798 35.1641C384.352 34.0833 390.908 46.2248 395.78 57.0497C395.253 50.2519 395.791 39.9922 401.146 29.0192C403.95 23.2749 406.66 22.8689 408.437 23.5492C414.719 25.9468 418.154 46.5979 415.795 62.8379C419.405 56.6053 425.78 46.8229 433.681 39.9099C439.101 35.1641 441.927 35.5646 443.342 36.7332C446.996 39.7508 444.253 50.7841 436.386 65.5263C440.232 62.2673 446.025 58.125 452.335 56.3419C456.291 55.2227 457.701 56.7808 458.194 57.8068C459.39 60.3141 457.646 64.9612 453.405 70.5519C449.635 75.5226 444.193 80.8335 437.796 85.8098C444.796 84.0815 458.15 81.7333 474.566 83.4945C480.903 84.1748 483.975 85.8921 483.706 88.5969C483.147 94.259 464.882 101.666 451.155 102.648C457.624 105.248 468.608 110.51 476.475 118.685C479.092 121.406 479.789 123.623 478.544 125.285C476.141 128.5 466.27 127.787 457.805 126.102C462.057 129.027 466.441 133.361 468.849 139.577C470.572 144.027 469.101 146.172 467.56 147.187C463.335 149.974 453.542 147.472 446.75 144.433C448.697 146.891 450.87 150.199 452.637 154.33C453.668 156.744 453.553 158.396 452.291 159.241C449.202 161.309 439.31 155.609 430.927 148.449C433.801 154.067 437.373 163.279 437.746 174.8C438.015 183.211 435.332 185.356 433.033 185.669C432.825 185.697 432.616 185.713 432.402 185.713L432.435 185.735Z" fill="#F5D72C"/>
<path d="M432.435 186.064C428.364 186.064 423.668 181.291 421.045 176.534C420.415 178.926 419.334 180.43 417.83 181C415.383 181.933 412.388 180.271 408.668 175.925C404.756 171.355 401.832 166.28 399.961 160.821C398.935 168.14 396.702 174.971 393.317 181.143C393.295 181.181 393.273 181.22 393.246 181.258C392.911 181.746 389.866 186.015 386.53 184.967C383.15 183.908 381.598 178.021 381.636 166.439C381.724 141.135 390.568 125.548 390.947 124.901C391.309 124.27 392.115 124.056 392.746 124.418C393.377 124.78 393.591 125.587 393.229 126.218C393.141 126.371 384.357 141.964 384.27 166.45C384.22 180.397 386.59 182.224 387.315 182.454C388.352 182.783 390.157 181.066 391.051 179.799C397.432 168.134 397.975 156.108 397.915 151.478C397.777 150.007 397.799 149.096 397.805 148.926C397.827 148.235 398.386 147.675 399.078 147.653C399.758 147.621 400.361 148.158 400.433 148.833C400.449 148.992 400.532 149.87 400.564 151.307C401.031 155.976 402.962 165.199 410.671 174.208C414.566 178.762 416.322 178.751 416.892 178.531C418.434 177.944 419.059 173.939 419.01 171.284C418.999 170.614 419.493 170.038 420.157 169.95C420.826 169.863 421.446 170.285 421.605 170.938C423.075 176.88 429.352 183.875 432.743 183.398C434.641 183.134 435.634 180.035 435.469 174.883C434.877 156.531 425.561 143.906 425.468 143.78C425.051 143.226 425.138 142.441 425.66 141.991C426.186 141.541 426.971 141.574 427.459 142.068C437.51 152.317 449.268 158.5 451.029 157.332C451.029 157.332 451.238 156.882 450.535 155.241C447.364 147.813 442.739 143.16 440.896 141.503C440.627 141.295 440.38 141.081 440.171 140.878C439.672 140.389 439.639 139.594 440.1 139.067C440.561 138.54 441.351 138.464 441.905 138.897C441.96 138.941 442.262 139.182 442.745 139.616C447.424 143.171 462.019 148.103 466.314 145.267C466.764 144.971 468.136 144.065 466.72 140.411C463.258 131.474 454.985 126.679 450.36 124.616C448.346 124.018 446.717 123.409 445.696 122.882C445.104 122.575 444.835 121.867 445.076 121.242C445.318 120.616 445.987 120.27 446.634 120.44C446.859 120.501 448.895 121.044 451.687 122.3C455.084 123.277 459.292 124.149 463.193 124.676C472.481 125.927 476.058 124.786 476.711 123.913C477.15 123.326 476.442 121.971 474.824 120.292C463.659 108.694 445.34 102.983 445.159 102.928C444.511 102.73 444.122 102.077 444.253 101.413C444.385 100.744 444.994 100.289 445.669 100.354C451.731 100.909 460.296 99.4273 468.569 96.3878C475.943 93.6774 481.227 90.3856 481.424 88.3775C481.485 87.7521 480.085 86.4079 474.33 85.7934C450.766 83.2696 433.983 89.2663 433.28 89.5242C432.666 89.7546 431.969 89.4858 431.662 88.9042C431.355 88.3226 431.53 87.5929 432.068 87.2144C450.261 74.3376 457.509 61.6913 456.126 58.8054C455.698 57.9056 453.778 58.3336 452.977 58.564C442.673 61.4773 433.456 71.4627 433.363 71.5615C432.907 72.0607 432.15 72.132 431.607 71.7315C431.064 71.331 430.91 70.5904 431.25 70.0088C443.249 49.4948 443.6 39.9319 441.889 38.5219C441.296 38.0336 439.222 38.1488 435.212 41.6547C423.388 51.9967 414.736 69.6576 414.648 69.8387C414.352 70.4477 413.628 70.733 412.997 70.4971C412.355 70.2502 412.009 69.5699 412.196 68.906C417.057 51.6894 412.755 27.6696 407.626 25.7164C405.892 25.0471 403.972 28.52 403.231 30.0453C394.431 48.0684 399.341 64.4729 399.39 64.6375C399.599 65.3124 399.242 66.0311 398.578 66.267C397.914 66.5029 397.179 66.1792 396.916 65.5263C387.117 41.6108 381.631 37.1283 380.341 37.4246C380.056 37.4904 379.063 38.7578 379.442 43.7231C380.391 56.2706 385.916 69.3833 385.97 69.515C386.245 70.1624 385.97 70.9141 385.329 71.2158C384.692 71.5231 383.935 71.2762 383.6 70.6507C369.687 44.782 359.284 35.7128 357.496 36.4645C357.496 36.4645 356.382 37.4301 358.401 44.1236C364.173 63.2659 375.102 75.2429 375.217 75.3636C375.705 75.8903 375.678 76.7242 375.157 77.218C374.635 77.7118 373.801 77.6898 373.302 77.1741C367.19 70.8043 358.906 64.7527 350.566 60.5611C342.221 56.3694 336.817 55.6123 335.325 56.6876C334.266 57.4502 335.429 59.963 335.978 61.011C343.379 75.1112 360.211 84.4437 360.381 84.537C360.974 84.8607 361.226 85.5739 360.969 86.1994C360.711 86.8248 360.025 87.1485 359.377 86.9565C336 80.0655 321.663 79.4455 320.303 81.6456C320.166 81.8705 320.385 82.6606 321.565 83.928C329.147 92.0644 347.39 96.3164 347.571 96.3549C348.262 96.514 348.701 97.1833 348.575 97.8801C348.448 98.5769 347.796 99.0377 347.093 98.9445C343.445 98.4232 335.775 97.9789 328.752 98.1928C319.184 98.4836 316.545 99.8443 316.265 100.267C316.331 100.431 316.786 101.243 319.474 102.664C334.227 110.466 358.961 105.846 359.207 105.797C359.899 105.665 360.574 106.099 360.738 106.785C360.903 107.47 360.497 108.162 359.816 108.359C333.284 115.942 321.032 128.626 321.905 133.301C322.223 135.007 324.889 135.803 329.032 135.424C347.505 133.734 364.688 123.392 364.858 123.288C365.478 122.909 366.29 123.107 366.669 123.727C366.85 124.029 366.905 124.38 366.823 124.725C366.74 125.066 366.526 125.356 366.225 125.537C366.049 125.647 348.333 136.302 329.268 138.047C321.433 138.765 319.666 135.687 319.31 133.789C318.053 127.074 330.359 116.71 347.609 109.753C338.688 110.219 327.018 109.643 318.234 105.002C315.93 103.784 312.951 101.885 313.73 99.4986C314.07 98.4452 314.877 95.9818 328.659 95.5648C330.979 95.4935 333.514 95.4935 336.087 95.5538C330.53 93.4306 323.754 90.1606 319.622 85.7275C317.647 83.6098 317.115 81.7718 318.048 80.2685C321.203 75.1661 341.601 79.5772 351.938 82.1997C345.837 77.7502 338.189 70.9305 333.629 62.2399C331.243 57.6916 332.384 55.5519 333.767 54.5589C337.794 51.6565 351.532 56.0951 366.016 67.2381C362.779 62.0314 358.703 54.3229 355.861 44.9027C353.951 38.5603 354.149 35.0105 356.47 34.0449C358.999 32.997 362.949 35.7896 368.551 42.5819C371.898 46.6419 375.59 51.9144 379.299 57.933C377.96 52.9129 377.121 48.2165 376.797 43.9315C376.281 37.1338 378.103 35.2519 379.721 34.8734C383.43 33.9955 388.692 40.8646 395.341 55.3215C395.045 48.606 395.89 39.0541 400.85 28.9041C403.769 22.9293 406.644 22.5453 408.553 23.2695C411.609 24.4381 414.209 29.7929 415.68 37.9732C416.991 45.2593 417.221 53.8511 416.333 61.2963C420.272 54.6796 426.23 46.0164 433.461 39.6905C439.058 34.7966 442.037 35.2574 443.551 36.5083C447.216 39.5369 444.923 49.8569 437.439 64.2535C441.214 61.2194 446.514 57.6697 452.242 56.0512C456.428 54.8661 457.948 56.5724 458.485 57.6916C459.742 60.3142 457.98 65.0819 453.663 70.7769C450.113 75.4569 445.12 80.4166 439.167 85.1734C446.206 83.5659 459.061 81.5304 474.599 83.1928C481.15 83.8951 484.321 85.733 484.03 88.6573C483.756 91.428 479.548 94.7254 472.492 97.71C466.216 100.36 458.864 102.264 452.532 102.889C458.803 105.523 469.2 110.686 476.706 118.482C479.449 121.335 480.157 123.699 478.802 125.51C476.004 129.252 464.471 127.677 459.198 126.733C463.884 130.245 467.231 134.53 469.151 139.49C470.956 144.148 469.381 146.413 467.735 147.494C465.557 148.932 458.952 150.007 447.781 145.278C449.844 148.048 451.572 151.055 452.933 154.237C454.036 156.816 453.877 158.604 452.467 159.548C449.284 161.677 439.946 156.36 431.914 149.744C434.679 155.516 437.73 164.195 438.07 174.828C438.35 183.48 435.508 185.702 433.072 186.037C432.852 186.07 432.627 186.081 432.397 186.081L432.435 186.064ZM420.793 174.603L421.221 175.453C423.652 180.282 428.408 185.411 432.435 185.411C432.633 185.411 432.83 185.4 433.017 185.373C436.122 184.945 437.653 181.302 437.445 174.839C437.077 163.422 433.555 154.281 430.658 148.625L429.901 147.149L431.163 148.224C440.292 156.015 449.504 160.744 452.126 158.988C453.235 158.248 453.311 156.728 452.351 154.484C450.848 150.962 448.884 147.659 446.508 144.663L445.674 143.61L446.903 144.159C453.992 147.33 463.434 149.552 467.401 146.935C469.464 145.574 469.864 143.078 468.564 139.714C466.528 134.464 462.852 129.987 457.64 126.393L456.324 125.488L457.887 125.801C466.26 127.463 476.015 128.154 478.297 125.109C479.427 123.595 478.741 121.516 476.25 118.932C468.301 110.675 457.048 105.391 451.046 102.977L449.723 102.445L451.144 102.341C465.387 101.315 482.867 93.8585 483.388 88.586C483.635 86.0951 480.662 84.4986 474.539 83.8402C457.964 82.0626 444.462 84.526 437.883 86.15L436.38 86.5231L437.598 85.5739C444.023 80.5703 449.4 75.3142 453.147 70.3764C457.311 64.8844 459.045 60.3636 457.898 57.9714C457.454 57.0387 456.148 55.6232 452.428 56.6766C446.141 58.4543 440.352 62.6185 436.605 65.7952L435.288 66.9144L436.1 65.3892C443.919 50.7512 446.612 39.877 443.14 37.0076C441.823 35.9158 439.151 35.5866 433.906 40.1788C426.219 46.9052 419.97 56.3145 416.086 63.0245L415.23 64.5058L415.477 62.816C417.896 46.1481 414.226 26.1334 408.328 23.884C405.969 22.9787 403.588 24.8167 401.453 29.1894C396.104 40.1404 395.599 50.3836 396.12 57.0497L396.269 58.9316L395.495 57.2088C388.834 42.4063 383.288 34.7033 379.891 35.5098C378.525 35.8335 376.995 37.5508 377.472 43.8822C377.839 48.7651 378.893 54.2022 380.588 60.0453L381.296 62.4868L379.985 60.3087C375.881 53.4725 371.755 47.4868 368.052 42.9988C361.429 34.9666 358.236 34.0285 356.728 34.6539C354.807 35.4495 354.725 38.8346 356.497 44.7106C359.63 55.091 364.266 63.3811 367.607 68.5055L368.726 70.2228L367.124 68.9444C353.946 58.4104 338.534 51.9418 334.151 55.0965C332.472 56.3036 332.494 58.6682 334.211 61.9382C339.078 71.2048 347.527 78.3427 353.759 82.6935L355.274 83.7524L353.49 83.2861C338.293 79.3029 321.148 76.5103 318.607 80.6196C317.856 81.8376 318.355 83.4068 320.105 85.2831C324.632 90.1387 332.45 93.5951 338.216 95.6416L340.252 96.3603L338.095 96.278C334.853 96.1573 331.599 96.1354 328.675 96.2232C315.354 96.6292 314.597 98.939 314.35 99.7016C313.73 101.616 316.44 103.312 318.536 104.42C327.891 109.363 340.619 109.621 349.655 108.968L351.899 108.804L349.798 109.605C329.723 117.236 318.86 127.836 319.952 133.674C320.264 135.353 321.883 138.069 329.202 137.399C348.119 135.665 365.703 125.088 365.879 124.983C366.027 124.89 366.137 124.747 366.175 124.577C366.214 124.407 366.192 124.232 366.098 124.078C365.912 123.771 365.506 123.672 365.193 123.859C365.018 123.963 347.708 134.382 329.081 136.088C324.494 136.505 321.641 135.539 321.246 133.432C320.336 128.55 332.708 115.426 359.624 107.734C359.965 107.635 360.168 107.289 360.085 106.949C360.003 106.609 359.668 106.39 359.317 106.455C359.07 106.505 334.107 111.163 319.156 103.257C316.281 101.737 315.436 100.634 315.606 100.113C315.936 99.1036 319.568 97.8197 328.719 97.5454C335.775 97.3314 343.494 97.7758 347.176 98.308C347.516 98.3574 347.856 98.116 347.916 97.7759C347.982 97.4247 347.763 97.09 347.417 97.0132C347.23 96.9693 328.796 92.6734 321.076 84.3888C320.347 83.6098 319.205 82.1723 319.732 81.3164C321.702 78.1343 339.193 80.3398 359.553 86.342C359.877 86.4353 360.217 86.2762 360.349 85.9635C360.48 85.6507 360.349 85.2941 360.058 85.135C359.888 85.0417 342.88 75.616 335.385 61.3401C334.43 59.5241 333.575 57.1485 334.93 56.1774C336.51 55.0417 341.623 55.3599 350.851 59.996C359.251 64.2205 367.607 70.3215 373.763 76.7407C374.01 76.9986 374.427 77.0095 374.69 76.7626C374.954 76.5157 374.965 76.0988 374.723 75.8354C374.613 75.7147 363.575 63.628 357.764 44.343C355.542 36.9692 356.941 35.9981 357.243 35.8829C360.019 34.7252 371.239 46.3182 384.176 70.3654C384.341 70.6781 384.725 70.7988 385.043 70.6452C385.361 70.4916 385.504 70.1185 385.361 69.7948C385.307 69.6631 379.738 56.4517 378.778 43.7944C378.41 38.9663 379.31 37.0131 380.188 36.8046C381.444 36.5193 383.529 38.4341 386.069 42.2088C389.449 47.2289 393.3 54.9978 397.525 65.3014C397.657 65.6251 398.024 65.7897 398.359 65.669C398.688 65.5483 398.869 65.1917 398.765 64.8515C398.716 64.6869 393.701 48.0793 402.644 29.7764C403.895 27.2197 405.81 24.3338 407.867 25.1239C410.544 26.1444 413.052 32.5416 414.253 41.4242C415.57 51.1463 415.054 61.2359 412.832 69.109C412.739 69.4382 412.909 69.7838 413.233 69.9045C413.551 70.0252 413.913 69.8771 414.061 69.5754C414.149 69.3943 422.862 51.6126 434.784 41.1828C438.229 38.1707 441.044 36.9912 442.311 38.0391C444.593 39.9264 443.683 50.0929 431.821 70.3709C431.651 70.6617 431.728 71.0348 431.997 71.2323C432.265 71.4298 432.644 71.3969 432.874 71.1445C432.968 71.0457 442.311 60.9232 452.796 57.9605C454.261 57.5435 456.126 57.3131 456.719 58.553C458.26 61.7846 451.468 74.3157 432.446 87.7795C432.178 87.9715 432.09 88.3336 432.243 88.6244C432.397 88.9152 432.743 89.0524 433.055 88.9371C433.769 88.6793 450.683 82.6277 474.407 85.1679C479.444 85.7056 482.242 86.9126 482.083 88.4708C481.803 91.2908 474.753 94.8461 468.8 97.0352C460.438 100.108 451.77 101.605 445.608 101.04C445.274 101.007 444.967 101.232 444.901 101.567C444.835 101.896 445.032 102.225 445.356 102.324C445.543 102.379 464.021 108.145 475.307 119.864C476.662 121.274 478.099 123.195 477.243 124.336C476.283 125.62 472.064 126.563 463.11 125.356C459.182 124.824 454.935 123.946 451.468 122.942C448.681 121.691 446.695 121.159 446.475 121.104C446.152 121.022 445.817 121.192 445.696 121.505C445.576 121.818 445.707 122.169 446.009 122.322C446.991 122.833 448.577 123.425 450.596 124.029C455.352 126.146 463.791 131.046 467.34 140.203C468.948 144.351 467.242 145.475 466.682 145.843C462.024 148.921 447.117 143.785 442.328 140.148C441.845 139.714 441.554 139.484 441.499 139.44C441.225 139.226 440.83 139.259 440.599 139.522C440.369 139.786 440.385 140.181 440.632 140.428C440.824 140.614 441.055 140.812 441.318 141.02C443.211 142.721 447.918 147.456 451.139 155.005C451.786 156.52 451.88 157.573 451.391 157.897C448.977 159.51 436.462 152.213 426.982 142.546C426.74 142.299 426.345 142.282 426.082 142.507C425.819 142.732 425.775 143.127 425.983 143.401C426.077 143.528 435.519 156.322 436.117 174.877C436.298 180.485 435.129 183.749 432.825 184.067C428.99 184.588 422.554 177.571 420.958 171.114C420.875 170.79 420.568 170.576 420.233 170.62C419.899 170.664 419.657 170.949 419.663 171.284C419.696 173.193 419.312 178.328 417.123 179.162C416.053 179.563 413.984 179.113 410.166 174.652C402.337 165.506 400.372 156.136 399.901 151.362C399.868 149.925 399.791 149.074 399.774 148.915C399.742 148.581 399.445 148.323 399.105 148.323C399.105 148.323 399.094 148.323 399.089 148.323C398.748 148.334 398.469 148.614 398.458 148.959C398.458 149.058 398.43 149.963 398.567 151.45C398.633 156.157 398.079 168.321 391.605 180.15C390.892 181.165 388.747 183.601 387.112 183.085C385.784 182.668 383.562 179.952 383.606 166.45C383.694 141.794 392.56 126.048 392.653 125.894C392.834 125.581 392.724 125.175 392.412 124.994C392.093 124.813 391.693 124.923 391.512 125.236C391.139 125.878 382.377 141.317 382.289 166.45C382.251 177.549 383.699 183.403 386.722 184.347C389.592 185.247 392.39 181.34 392.697 180.891L392.735 180.836C396.301 174.329 398.578 167.081 399.495 159.296L399.676 157.738L400.137 159.241C401.942 165.144 404.981 170.62 409.167 175.514C412.684 179.623 415.438 181.22 417.595 180.402C419.405 179.716 420.228 177.385 420.601 175.547L420.793 174.614V174.603Z" fill="#F5D72C"/>
<path d="M340.718 154.342C339.955 154.342 339.319 154.161 338.869 153.749C337.322 152.312 338.611 149.47 339.906 147.16C347.186 134.157 355.608 128.44 355.965 128.204C356.42 127.902 357.029 128.023 357.336 128.478C357.638 128.934 357.518 129.543 357.068 129.85C356.985 129.905 348.668 135.572 341.634 148.131C339.697 151.587 340.213 152.306 340.219 152.312C341.096 153.124 346.973 150.512 352.547 146.825C353.002 146.523 353.617 146.65 353.913 147.105C354.215 147.56 354.088 148.175 353.633 148.471C350.676 150.43 344.295 154.353 340.718 154.353V154.342Z" fill="#F5D72C"/>
<path d="M340.718 154.671C339.829 154.671 339.132 154.44 338.644 153.99C336.927 152.394 338.26 149.415 339.615 146.995C346.934 133.921 355.422 128.166 355.778 127.924C356.382 127.518 357.199 127.683 357.605 128.286C358.011 128.89 357.847 129.707 357.243 130.113C357.161 130.168 348.876 135.847 341.914 148.279C340.422 150.945 340.449 151.884 340.488 152.087C341.289 152.487 346.556 150.375 352.36 146.534C352.651 146.342 353.002 146.271 353.348 146.342C353.693 146.414 353.99 146.611 354.182 146.907C354.374 147.198 354.445 147.555 354.374 147.895C354.302 148.241 354.105 148.537 353.809 148.729C350.456 150.945 344.301 154.665 340.712 154.665L340.718 154.671ZM356.514 128.363C356.387 128.363 356.261 128.401 356.151 128.473C355.8 128.709 347.439 134.382 340.197 147.313C338.962 149.519 337.717 152.218 339.099 153.502C339.462 153.837 340.01 154.007 340.723 154.007C344.268 154.007 350.808 149.93 353.452 148.18C353.6 148.081 353.699 147.933 353.732 147.763C353.765 147.593 353.732 147.418 353.639 147.269C353.54 147.121 353.392 147.023 353.222 146.99C353.052 146.957 352.876 146.99 352.728 147.083C348.344 149.98 341.267 153.716 339.994 152.537C339.862 152.416 339.291 151.626 341.343 147.955C348.383 135.386 356.799 129.619 356.881 129.565C357.183 129.362 357.265 128.95 357.062 128.648C356.936 128.456 356.727 128.358 356.514 128.358V128.363Z" fill="#F5D72C"/>
<path d="M418.044 156.267C417.589 156.267 417.177 155.949 417.079 155.483C412.805 134.941 405.332 123.239 405.255 123.118C404.959 122.662 405.091 122.048 405.546 121.752C406.002 121.455 406.616 121.587 406.912 122.042C407.225 122.525 414.659 134.14 419.01 155.077C419.12 155.609 418.78 156.135 418.242 156.245C418.176 156.262 418.105 156.267 418.039 156.267H418.044Z" fill="#F5D72C"/>
<path d="M418.044 156.596C417.424 156.596 416.881 156.157 416.755 155.548C412.487 135.029 405.052 123.414 404.976 123.299C404.784 123.003 404.718 122.651 404.795 122.306C404.866 121.96 405.074 121.669 405.365 121.477C405.974 121.082 406.792 121.258 407.187 121.867C407.505 122.355 414.972 134.041 419.334 155.016C419.482 155.729 419.026 156.426 418.313 156.574C418.225 156.591 418.132 156.602 418.044 156.602V156.596ZM406.084 121.922C405.963 121.922 405.837 121.955 405.727 122.026C405.42 122.223 405.332 122.629 405.53 122.937C405.607 123.052 413.101 134.749 417.397 155.411C417.468 155.757 417.819 155.993 418.176 155.921C418.533 155.85 418.763 155.499 418.686 155.142C414.346 134.288 406.945 122.701 406.633 122.218C406.506 122.026 406.292 121.916 406.078 121.916L406.084 121.922Z" fill="#F5D72C"/>
<path d="M398.853 134.519C398.31 134.519 397.865 134.074 397.865 133.531V123.963C397.865 123.42 398.31 122.975 398.853 122.975C399.396 122.975 399.84 123.42 399.84 123.963V133.531C399.84 134.074 399.396 134.519 398.853 134.519Z" fill="#F5D72C"/>
<path d="M398.853 134.848C398.129 134.848 397.536 134.255 397.536 133.531V123.963C397.536 123.239 398.129 122.646 398.853 122.646C399.577 122.646 400.17 123.239 400.17 123.963V133.531C400.17 134.255 399.577 134.848 398.853 134.848ZM398.853 123.304C398.491 123.304 398.194 123.601 398.194 123.963V133.531C398.194 133.893 398.491 134.19 398.853 134.19C399.215 134.19 399.511 133.893 399.511 133.531V123.963C399.511 123.601 399.215 123.304 398.853 123.304Z" fill="#F5D72C"/>
<path d="M380.638 134.519C380.418 134.519 380.199 134.448 380.018 134.3C379.595 133.954 379.529 133.334 379.875 132.911C386.212 125.093 388.467 118.405 388.489 118.339C388.659 117.824 389.219 117.538 389.74 117.708C390.255 117.878 390.541 118.438 390.365 118.954C390.272 119.239 387.973 126.059 381.411 134.151C381.214 134.393 380.928 134.519 380.643 134.519H380.638Z" fill="#F5D72C"/>
<path d="M380.638 134.848C380.336 134.848 380.04 134.744 379.809 134.552C379.244 134.096 379.156 133.262 379.617 132.697C385.91 124.939 388.149 118.295 388.171 118.229C388.28 117.895 388.516 117.62 388.829 117.461C389.142 117.302 389.504 117.28 389.833 117.39C390.524 117.615 390.897 118.361 390.672 119.052C390.579 119.343 388.264 126.218 381.664 134.354C381.411 134.661 381.038 134.842 380.638 134.842V134.848ZM389.416 117.988C389.317 117.988 389.213 118.01 389.125 118.059C388.966 118.136 388.851 118.273 388.796 118.443C388.774 118.509 386.519 125.236 380.127 133.12C379.897 133.4 379.941 133.816 380.226 134.047C380.5 134.272 380.934 134.222 381.153 133.948C387.677 125.899 389.954 119.14 390.052 118.855C390.168 118.509 389.981 118.136 389.635 118.021C389.57 117.999 389.498 117.988 389.427 117.988H389.416Z" fill="#F5D72C"/>
<path d="M376.506 124.951C376.226 124.951 375.952 124.835 375.755 124.605C375.398 124.194 375.447 123.568 375.859 123.211L384.379 115.898C384.796 115.541 385.416 115.591 385.773 116.002C386.129 116.414 386.08 117.039 385.669 117.396L377.148 124.709C376.962 124.868 376.731 124.945 376.506 124.945V124.951Z" fill="#F5D72C"/>
<path d="M376.506 125.28C376.122 125.28 375.755 125.11 375.508 124.819C375.036 124.265 375.096 123.436 375.65 122.959L384.171 115.645C384.72 115.174 385.553 115.239 386.025 115.788C386.497 116.342 386.437 117.171 385.883 117.648L377.362 124.961C377.126 125.164 376.819 125.28 376.506 125.28ZM385.027 115.997C384.873 115.997 384.725 116.046 384.599 116.156L376.078 123.464C375.804 123.7 375.771 124.117 376.007 124.391C376.232 124.654 376.671 124.693 376.934 124.462L385.455 117.154C385.729 116.918 385.762 116.501 385.526 116.227C385.394 116.073 385.213 115.997 385.027 115.997Z" fill="#F5D72C"/>
<path d="M375.31 118.427C374.986 118.427 374.668 118.268 374.482 117.977C374.185 117.516 374.317 116.907 374.772 116.611L380.1 113.165C380.555 112.869 381.17 113.001 381.466 113.456C381.762 113.911 381.631 114.526 381.175 114.822L375.848 118.268C375.683 118.377 375.497 118.427 375.31 118.427Z" fill="#F5D72C"/>
<path d="M375.31 118.756C374.86 118.756 374.449 118.531 374.202 118.153C373.807 117.544 373.983 116.726 374.592 116.331L379.919 112.886C380.528 112.49 381.345 112.666 381.74 113.275C382.136 113.884 381.96 114.702 381.351 115.097L376.024 118.542C375.81 118.679 375.563 118.751 375.31 118.751V118.756ZM380.638 113.335C380.517 113.335 380.391 113.368 380.281 113.44L374.954 116.885C374.646 117.083 374.564 117.489 374.756 117.796C374.948 118.092 375.371 118.18 375.667 117.993L380.994 114.548C381.302 114.35 381.389 113.944 381.192 113.637C381.066 113.445 380.852 113.335 380.638 113.335Z" fill="#F5D72C"/>
<path d="M365.846 106.395C365.358 106.395 364.935 106.033 364.869 105.539C364.798 104.996 365.177 104.502 365.714 104.431L372.238 103.553C372.781 103.482 373.275 103.86 373.346 104.398C373.417 104.941 373.039 105.435 372.501 105.506L365.978 106.384C365.934 106.39 365.89 106.395 365.846 106.395Z" fill="#F5D72C"/>
<path d="M365.846 106.724C365.193 106.724 364.628 106.236 364.54 105.583C364.442 104.864 364.952 104.201 365.671 104.102L372.194 103.224C372.907 103.131 373.577 103.635 373.675 104.354C373.774 105.073 373.264 105.737 372.545 105.836L366.022 106.713C365.961 106.719 365.901 106.724 365.846 106.724ZM372.375 103.871C372.342 103.871 372.315 103.871 372.282 103.877L365.758 104.755C365.396 104.804 365.144 105.133 365.193 105.495C365.243 105.852 365.572 106.11 365.934 106.06L372.457 105.183C372.819 105.133 373.072 104.804 373.022 104.442C372.979 104.107 372.699 103.871 372.375 103.871Z" fill="#F5D72C"/>
<path d="M370.636 98.6206H357.913C357.37 98.6206 356.925 98.1762 356.925 97.6331C356.925 97.0899 357.37 96.6455 357.913 96.6455H370.636C371.179 96.6455 371.623 97.0899 371.623 97.6331C371.623 98.1762 371.179 98.6206 370.636 98.6206Z" fill="#F5D72C"/>
<path d="M370.636 98.9499H357.913C357.188 98.9499 356.596 98.3574 356.596 97.6332C356.596 96.9089 357.188 96.3164 357.913 96.3164H370.636C371.36 96.3164 371.953 96.9089 371.953 97.6332C371.953 98.3574 371.36 98.9499 370.636 98.9499ZM357.913 96.9748C357.551 96.9748 357.254 97.2711 357.254 97.6332C357.254 97.9953 357.551 98.2915 357.913 98.2915H370.636C370.998 98.2915 371.294 97.9953 371.294 97.6332C371.294 97.2711 370.998 96.9748 370.636 96.9748H357.913Z" fill="#F5D72C"/>
<path d="M372.847 92.4647C372.732 92.4647 372.616 92.4427 372.501 92.3989L367.788 90.6322C367.278 90.4402 367.02 89.8696 367.212 89.3593C367.404 88.8491 367.975 88.5912 368.485 88.7833L373.198 90.5499C373.708 90.7419 373.966 91.3125 373.774 91.8228C373.626 92.2178 373.247 92.4647 372.847 92.4647Z" fill="#F5D72C"/>
<path d="M372.847 92.794C372.688 92.794 372.534 92.7665 372.386 92.7117L367.673 90.945C367.344 90.8188 367.081 90.5774 366.938 90.2592C366.79 89.941 366.779 89.5789 366.905 89.2497C367.031 88.9205 367.273 88.6572 367.596 88.5145C367.92 88.3664 368.277 88.3554 368.6 88.4816L373.313 90.2482C373.642 90.3744 373.906 90.6158 374.048 90.9341C374.196 91.2523 374.207 91.6144 374.081 91.9436C373.889 92.4538 373.395 92.7995 372.847 92.7995V92.794ZM368.134 89.0467C368.041 89.0467 367.953 89.0687 367.865 89.1071C367.706 89.1784 367.58 89.3101 367.519 89.4747C367.459 89.6393 367.465 89.8203 367.536 89.9794C367.607 90.1385 367.739 90.2592 367.903 90.3251L372.616 92.0917C372.946 92.2179 373.341 92.0368 373.461 91.7077C373.522 91.5431 373.516 91.362 373.445 91.2029C373.373 91.0438 373.242 90.9231 373.077 90.8572L368.364 89.0906C368.288 89.0632 368.211 89.0467 368.134 89.0467Z" fill="#F5D72C"/>
<path d="M382.591 87.851C382.289 87.851 381.987 87.7138 381.795 87.445L377.664 81.8103C377.34 81.3714 377.439 80.7515 377.878 80.4277C378.317 80.104 378.937 80.2028 379.261 80.6417L383.392 86.2763C383.716 86.7153 383.617 87.3352 383.178 87.6589C383.002 87.7851 382.799 87.851 382.596 87.851H382.591Z" fill="#F5D72C"/>
<path d="M382.591 88.1799C382.174 88.1799 381.773 87.9769 381.526 87.6422L377.395 82.0076C376.967 81.4206 377.093 80.5976 377.68 80.1642C378.267 79.7362 379.09 79.8624 379.524 80.4495L383.655 86.0841C384.083 86.6711 383.957 87.4941 383.37 87.9275C383.139 88.0921 382.871 88.1799 382.591 88.1799ZM378.459 80.5702C378.322 80.5702 378.191 80.6141 378.07 80.6964C377.779 80.9103 377.713 81.3218 377.927 81.6181L382.059 87.2527C382.267 87.538 382.69 87.6038 382.98 87.3953C383.271 87.1814 383.337 86.7699 383.123 86.4736L378.992 80.839C378.86 80.6634 378.662 80.5702 378.459 80.5702Z" fill="#F5D72C"/>
<path d="M394.381 86.5615C394.052 86.5615 393.728 86.3969 393.542 86.0896L389.257 79.1383C388.972 78.6719 389.114 78.0629 389.581 77.7776C390.047 77.4923 390.656 77.635 390.941 78.1013L395.226 85.0527C395.511 85.519 395.369 86.128 394.902 86.4133C394.743 86.5121 394.562 86.5615 394.387 86.5615H394.381Z" fill="#F5D72C"/>
<path d="M394.381 86.8906C393.92 86.8906 393.503 86.6547 393.257 86.2651L388.972 79.3138C388.593 78.6938 388.785 77.8818 389.4 77.5032C390.02 77.1192 390.832 77.3167 391.21 77.9312L395.495 84.8826C395.874 85.5025 395.682 86.3145 395.067 86.6931C394.859 86.8193 394.623 86.8906 394.376 86.8906H394.381ZM390.096 77.9641C389.981 77.9641 389.86 77.997 389.751 78.0629C389.443 78.2549 389.345 78.6609 389.537 78.9681L393.822 85.9195C394.008 86.2213 394.431 86.32 394.727 86.1335C395.034 85.9414 395.133 85.5354 394.941 85.2282L390.656 78.2768C390.53 78.0738 390.316 77.9641 390.096 77.9641Z" fill="#F5D72C"/>
<path d="M399.994 78.2987C399.528 78.2987 399.116 77.9695 399.023 77.4922L397.882 71.4022C397.783 70.8645 398.134 70.3488 398.672 70.25C399.204 70.1513 399.725 70.5024 399.824 71.0401L400.965 77.1301C401.064 77.6677 400.713 78.1835 400.175 78.2822C400.115 78.2932 400.054 78.2987 399.994 78.2987Z" fill="#F5D72C"/>
<path d="M399.994 78.6279C399.363 78.6279 398.82 78.1781 398.699 77.5526L397.558 71.4626C397.492 71.117 397.569 70.7658 397.766 70.475C397.964 70.1843 398.266 69.9867 398.611 69.9264C398.951 69.8605 399.303 69.9374 399.593 70.1349C399.884 70.3324 400.082 70.6341 400.147 70.9798L401.289 77.0698C401.354 77.4154 401.278 77.7666 401.08 78.0573C400.883 78.3481 400.581 78.5456 400.235 78.606C400.153 78.6225 400.071 78.6279 399.994 78.6279ZM398.853 70.5628C398.814 70.5628 398.77 70.5628 398.732 70.5738C398.556 70.6067 398.408 70.7055 398.31 70.8481C398.211 70.9908 398.172 71.1663 398.205 71.3419L399.346 77.4319C399.412 77.783 399.752 78.0244 400.115 77.9586C400.29 77.9257 400.438 77.8269 400.537 77.6843C400.636 77.5416 400.674 77.3661 400.641 77.1905L399.5 71.1005C399.467 70.9304 399.368 70.7768 399.22 70.678C399.111 70.6012 398.979 70.5628 398.847 70.5628H398.853Z" fill="#F5D72C"/>
<path d="M420.656 84.252C420.392 84.252 420.129 84.1477 419.937 83.9447C419.564 83.5497 419.58 82.9243 419.975 82.5457L424.436 78.3376C424.831 77.9645 425.456 77.9809 425.835 78.376C426.208 78.771 426.192 79.3965 425.797 79.775L421.336 83.9832C421.144 84.1642 420.903 84.252 420.656 84.252Z" fill="#F5D72C"/>
<path d="M420.656 84.5811C420.294 84.5811 419.948 84.433 419.696 84.1696C419.197 83.6429 419.224 82.809 419.751 82.3097L424.211 78.1016C424.743 77.6023 425.577 77.6297 426.071 78.1564C426.57 78.6831 426.548 79.5171 426.016 80.0164L421.556 84.2245C421.309 84.4549 420.991 84.5811 420.65 84.5811H420.656ZM425.116 78.3978C424.952 78.3978 424.793 78.4582 424.661 78.5789L420.206 82.787C419.943 83.0339 419.932 83.4564 420.179 83.7197C420.42 83.9776 420.853 83.9886 421.111 83.7472L425.566 79.539C425.83 79.2921 425.841 78.8697 425.594 78.6063C425.462 78.4692 425.292 78.4033 425.116 78.4033V78.3978Z" fill="#F5D72C"/>
<path d="M422.884 95.0436C422.543 95.0436 422.214 94.868 422.033 94.5553C421.759 94.0834 421.918 93.4799 422.384 93.2056L426.79 90.627C427.262 90.3526 427.865 90.5063 428.14 90.9781C428.414 91.4499 428.255 92.0534 427.789 92.3278L423.383 94.9064C423.224 94.9997 423.054 95.0436 422.884 95.0436Z" fill="#F5D72C"/>
<path d="M422.883 95.3729C422.417 95.3729 421.984 95.126 421.748 94.72C421.38 94.0945 421.589 93.2825 422.22 92.9204L426.625 90.3418C426.927 90.1662 427.284 90.1168 427.624 90.2046C427.964 90.2924 428.249 90.5119 428.43 90.8136C428.798 91.4391 428.589 92.2511 427.958 92.6132L423.553 95.1918C423.35 95.3125 423.119 95.3729 422.889 95.3729H422.883ZM427.284 90.8136C427.168 90.8136 427.053 90.8465 426.954 90.9069L422.549 93.4855C422.236 93.6666 422.132 94.0726 422.313 94.3853C422.488 94.6871 422.911 94.7968 423.213 94.6212L427.618 92.0426C427.931 91.8615 428.035 91.4555 427.854 91.1428C427.766 90.9892 427.624 90.8849 427.454 90.8356C427.399 90.8191 427.344 90.8136 427.289 90.8136H427.284Z" fill="#F5D72C"/>
<path d="M433.813 102.873C433.813 102.873 433.774 102.873 433.758 102.873L422.236 102.22C421.693 102.187 421.276 101.72 421.304 101.177C421.336 100.634 421.792 100.223 422.346 100.244L433.868 100.897C434.411 100.93 434.828 101.397 434.8 101.94C434.767 102.467 434.334 102.873 433.813 102.873Z" fill="#F5D72C"/>
<path d="M433.813 103.202H433.741L422.22 102.549C421.496 102.511 420.941 101.885 420.98 101.161C421.018 100.453 421.6 99.9209 422.308 99.9209C422.329 99.9209 422.346 99.9209 422.362 99.9209L433.889 100.574C434.614 100.612 435.168 101.238 435.129 101.962C435.091 102.659 434.509 103.207 433.813 103.207V103.202ZM422.302 100.574C421.951 100.574 421.655 100.843 421.633 101.194C421.611 101.556 421.891 101.869 422.253 101.891L433.774 102.543L433.813 102.873V102.543C434.164 102.543 434.449 102.269 434.471 101.923C434.493 101.561 434.213 101.249 433.851 101.227L422.329 100.574C422.329 100.574 422.313 100.574 422.302 100.574Z" fill="#F5D72C"/>
<path d="M432.94 116.704C432.781 116.704 432.622 116.666 432.474 116.589L419.986 109.906C419.504 109.649 419.323 109.051 419.58 108.568C419.838 108.085 420.436 107.904 420.919 108.162L433.406 114.844C433.889 115.102 434.07 115.7 433.812 116.183C433.637 116.518 433.291 116.704 432.94 116.704Z" fill="#F5D72C"/>
<path d="M432.94 117.033C432.726 117.033 432.512 116.979 432.32 116.88L419.833 110.197C419.526 110.033 419.295 109.753 419.197 109.418C419.092 109.083 419.131 108.727 419.295 108.414C419.46 108.107 419.734 107.876 420.074 107.778C420.415 107.673 420.766 107.712 421.078 107.876L433.566 114.559C433.873 114.724 434.103 115.003 434.202 115.338C434.306 115.673 434.268 116.029 434.103 116.342C433.873 116.77 433.428 117.039 432.94 117.039V117.033ZM420.453 108.376C420.387 108.376 420.327 108.387 420.261 108.403C420.091 108.453 419.954 108.568 419.871 108.721C419.789 108.875 419.767 109.056 419.822 109.226C419.871 109.396 419.987 109.533 420.14 109.616L432.627 116.298C432.94 116.468 433.352 116.337 433.516 116.029C433.599 115.876 433.62 115.695 433.566 115.53C433.516 115.36 433.401 115.223 433.247 115.141L420.76 108.458C420.661 108.409 420.557 108.381 420.453 108.381V108.376Z" fill="#F5D72C"/>
<path d="M441.098 120.82C440.939 120.82 440.775 120.781 440.627 120.699L437.038 118.74C436.561 118.477 436.38 117.879 436.643 117.401C436.907 116.924 437.505 116.743 437.982 117.006L441.57 118.965C442.048 119.228 442.229 119.827 441.965 120.304C441.784 120.633 441.45 120.82 441.098 120.82Z" fill="#F5D72C"/>
<path d="M441.098 121.149C440.879 121.149 440.66 121.094 440.468 120.989L436.879 119.031C436.243 118.685 436.007 117.884 436.353 117.242C436.523 116.935 436.803 116.71 437.137 116.611C437.477 116.512 437.834 116.551 438.141 116.721L441.729 118.68C442.366 119.025 442.602 119.826 442.256 120.468C442.026 120.891 441.581 121.154 441.098 121.154V121.149ZM437.51 117.215C437.45 117.215 437.384 117.226 437.324 117.242C437.154 117.292 437.017 117.407 436.934 117.56C436.852 117.714 436.83 117.895 436.879 118.06C436.929 118.23 437.044 118.367 437.198 118.449L440.786 120.408C441.098 120.578 441.51 120.452 441.68 120.144C441.856 119.826 441.735 119.426 441.417 119.25L437.829 117.292C437.73 117.237 437.62 117.209 437.516 117.209L437.51 117.215Z" fill="#F5D72C"/>
<path d="M432.94 131.907C432.671 131.907 432.402 131.797 432.205 131.583C424.244 122.772 416.075 117.538 415.992 117.483C415.531 117.192 415.394 116.578 415.691 116.122C415.981 115.662 416.59 115.524 417.051 115.821C417.391 116.04 425.517 121.241 433.67 130.261C434.037 130.667 434.004 131.293 433.598 131.655C433.412 131.825 433.17 131.907 432.935 131.907H432.94Z" fill="#F5D72C"/>
<path d="M432.94 132.236C432.567 132.236 432.21 132.077 431.964 131.803C424.008 122.997 415.899 117.812 415.817 117.763C415.202 117.373 415.021 116.556 415.411 115.947C415.597 115.651 415.894 115.442 416.234 115.365C416.579 115.289 416.931 115.349 417.227 115.541C417.567 115.76 425.72 120.973 433.911 130.042C434.4 130.579 434.356 131.413 433.818 131.902C433.577 132.121 433.264 132.242 432.935 132.242L432.94 132.236ZM416.525 115.991C416.475 115.991 416.426 115.996 416.382 116.007C416.212 116.046 416.064 116.15 415.97 116.298C415.773 116.605 415.866 117.011 416.173 117.209C416.256 117.258 424.431 122.487 432.452 131.364C432.688 131.627 433.121 131.649 433.385 131.413C433.653 131.172 433.675 130.755 433.434 130.481C425.303 121.483 417.221 116.309 416.881 116.095C416.771 116.029 416.651 115.991 416.53 115.991H416.525Z" fill="#F5D72C"/>
<path d="M436.967 136.801C436.715 136.801 436.462 136.703 436.27 136.511L434.421 134.662C434.037 134.278 434.037 133.652 434.421 133.263C434.805 132.879 435.431 132.879 435.82 133.263L437.669 135.112C438.053 135.496 438.053 136.121 437.669 136.511C437.477 136.703 437.225 136.801 436.973 136.801H436.967Z" fill="#F5D72C"/>
<path d="M436.967 137.131C436.616 137.131 436.287 136.993 436.035 136.747L434.186 134.898C433.939 134.651 433.802 134.316 433.802 133.965C433.802 133.614 433.939 133.285 434.186 133.032C434.685 132.533 435.552 132.533 436.045 133.032L437.894 134.881C438.141 135.128 438.278 135.463 438.278 135.814C438.278 136.165 438.141 136.494 437.894 136.747C437.648 136.993 437.313 137.131 436.962 137.131H436.967ZM435.118 133.306C434.943 133.306 434.778 133.372 434.652 133.499C434.526 133.625 434.46 133.789 434.46 133.965C434.46 134.14 434.531 134.305 434.652 134.431L436.501 136.28C436.748 136.527 437.181 136.527 437.434 136.28C437.56 136.154 437.626 135.989 437.626 135.814C437.626 135.638 437.554 135.474 437.434 135.347L435.585 133.499C435.458 133.372 435.294 133.306 435.118 133.306Z" fill="#F5D72C"/>
<path d="M419.46 134.952C419.191 134.952 418.922 134.842 418.725 134.623C415.784 131.353 409.826 122.816 409.573 122.454C409.261 122.004 409.37 121.389 409.82 121.076C410.265 120.764 410.885 120.873 411.197 121.323C411.258 121.411 417.337 130.118 420.201 133.3C420.563 133.706 420.53 134.332 420.129 134.694C419.943 134.864 419.707 134.946 419.471 134.946L419.46 134.952Z" fill="#F5D72C"/>
<path d="M419.46 135.281C419.087 135.281 418.73 135.122 418.483 134.848C415.515 131.55 409.557 123.014 409.304 122.651C409.101 122.361 409.025 122.015 409.091 121.669C409.151 121.324 409.343 121.022 409.634 120.819C410.232 120.402 411.049 120.55 411.466 121.148C411.719 121.51 417.638 129.976 420.442 133.092C420.925 133.63 420.881 134.464 420.343 134.952C420.102 135.172 419.789 135.292 419.46 135.292V135.281ZM410.38 121.236C410.248 121.236 410.122 121.274 410.007 121.357C409.864 121.455 409.765 121.609 409.732 121.779C409.699 121.955 409.738 122.125 409.842 122.273C410.095 122.635 416.031 131.139 418.972 134.409C419.208 134.667 419.641 134.694 419.904 134.458C420.173 134.217 420.195 133.8 419.954 133.531C417.123 130.387 411.181 121.889 410.928 121.527C410.797 121.34 410.594 121.241 410.385 121.241L410.38 121.236Z" fill="#F5D72C"/>
<path d="M398.853 143.977C398.31 143.977 397.865 143.533 397.865 142.99V137.662C397.865 137.119 398.31 136.675 398.853 136.675C399.396 136.675 399.84 137.119 399.84 137.662V142.99C399.84 143.533 399.396 143.977 398.853 143.977Z" fill="#F5D72C"/>
<path d="M398.853 144.307C398.129 144.307 397.536 143.714 397.536 142.99V137.662C397.536 136.938 398.129 136.346 398.853 136.346C399.577 136.346 400.17 136.938 400.17 137.662V142.99C400.17 143.714 399.577 144.307 398.853 144.307ZM398.853 137.004C398.491 137.004 398.194 137.3 398.194 137.662V142.99C398.194 143.352 398.491 143.648 398.853 143.648C399.215 143.648 399.511 143.352 399.511 142.99V137.662C399.511 137.3 399.215 137.004 398.853 137.004Z" fill="#F5D72C"/>
<path d="M419.46 163.12C419.027 163.12 418.626 162.829 418.505 162.39L417.852 159.998C417.71 159.471 418.017 158.928 418.544 158.785C419.07 158.643 419.614 158.95 419.756 159.477L420.409 161.869C420.552 162.395 420.245 162.939 419.718 163.081C419.63 163.103 419.542 163.114 419.46 163.114V163.12Z" fill="#F5D72C"/>
<path d="M419.46 163.449C418.867 163.449 418.346 163.048 418.193 162.478L417.54 160.086C417.348 159.383 417.765 158.659 418.461 158.467C418.802 158.374 419.158 158.418 419.46 158.593C419.767 158.769 419.987 159.049 420.08 159.389L420.733 161.781C420.925 162.483 420.508 163.208 419.811 163.4C419.696 163.432 419.581 163.443 419.465 163.443L419.46 163.449ZM418.807 159.082C418.747 159.082 418.692 159.087 418.632 159.104C418.28 159.197 418.072 159.565 418.171 159.91L418.824 162.302C418.917 162.642 419.29 162.862 419.63 162.763C419.981 162.67 420.19 162.302 420.091 161.957L419.438 159.565C419.394 159.394 419.284 159.252 419.131 159.164C419.032 159.109 418.917 159.076 418.807 159.076V159.082Z" fill="#F5D72C"/>
<path d="M375.744 141.317C375.535 141.317 375.332 141.251 375.151 141.119C374.712 140.796 374.625 140.176 374.948 139.737L377.67 136.094C377.999 135.655 378.613 135.567 379.052 135.891C379.491 136.214 379.579 136.834 379.255 137.273L376.534 140.916C376.342 141.174 376.04 141.311 375.744 141.311V141.317Z" fill="#F5D72C"/>
<path d="M375.744 141.646C375.459 141.646 375.184 141.558 374.959 141.382C374.378 140.949 374.257 140.12 374.69 139.539L377.412 135.896C377.62 135.616 377.927 135.43 378.279 135.38C378.624 135.331 378.975 135.419 379.255 135.627C379.837 136.06 379.957 136.889 379.524 137.47L376.803 141.113C376.556 141.443 376.161 141.64 375.749 141.64L375.744 141.646ZM378.465 136.028C378.432 136.028 378.405 136.028 378.372 136.033C378.196 136.06 378.043 136.148 377.938 136.291L375.217 139.934C374.998 140.225 375.058 140.636 375.349 140.856C375.629 141.07 376.062 141.004 376.271 140.724L378.992 137.081C379.211 136.79 379.151 136.379 378.86 136.159C378.745 136.071 378.608 136.028 378.465 136.028Z" fill="#F5D72C"/>
<path d="M367.371 133.542C367.108 133.542 366.845 133.438 366.653 133.23C366.28 132.829 366.302 132.209 366.697 131.836L370.471 128.303C370.866 127.93 371.497 127.952 371.865 128.347C372.238 128.747 372.216 129.367 371.821 129.74L368.046 133.274C367.854 133.455 367.613 133.542 367.371 133.542Z" fill="#F5D72C"/>
<path d="M367.371 133.872C367.009 133.872 366.658 133.718 366.411 133.455C365.917 132.922 365.945 132.088 366.472 131.595L370.246 128.061C370.504 127.82 370.844 127.694 371.19 127.705C371.541 127.716 371.865 127.864 372.106 128.122C372.6 128.654 372.572 129.488 372.046 129.982L368.271 133.515C368.024 133.745 367.706 133.872 367.371 133.872ZM371.146 128.363C370.976 128.363 370.817 128.423 370.696 128.539L366.921 132.072C366.658 132.319 366.642 132.736 366.889 133.005C367.13 133.263 367.563 133.279 367.821 133.038L371.596 129.504C371.722 129.384 371.799 129.219 371.804 129.043C371.81 128.868 371.75 128.698 371.629 128.572C371.508 128.445 371.349 128.369 371.173 128.363C371.168 128.363 371.157 128.363 371.151 128.363H371.146Z" fill="#F5D72C"/>
<path d="M370.488 121.297C370.181 121.297 369.873 121.148 369.681 120.88C369.369 120.435 369.473 119.815 369.923 119.502L372.282 117.84C372.726 117.527 373.346 117.632 373.659 118.081C373.972 118.526 373.868 119.146 373.418 119.459L371.059 121.121C370.888 121.242 370.685 121.302 370.493 121.302L370.488 121.297Z" fill="#F5D72C"/>
<path d="M370.488 121.626C370.06 121.626 369.659 121.417 369.412 121.066C368.995 120.473 369.138 119.651 369.731 119.228L372.09 117.566C372.375 117.363 372.726 117.286 373.072 117.346C373.417 117.407 373.719 117.599 373.922 117.884C374.339 118.476 374.197 119.299 373.604 119.722L371.245 121.384C371.02 121.543 370.762 121.626 370.488 121.626ZM372.841 117.988C372.704 117.988 372.578 118.027 372.463 118.109L370.104 119.771C369.807 119.98 369.736 120.391 369.945 120.687C370.148 120.973 370.576 121.05 370.861 120.847L373.22 119.184C373.516 118.976 373.588 118.564 373.379 118.268C373.28 118.125 373.127 118.027 372.951 117.999C372.913 117.994 372.874 117.988 372.836 117.988H372.841Z" fill="#F5D72C"/>
<path d="M355.082 98.6207C355.049 98.6207 355.01 98.6208 354.977 98.6153L353.019 98.4068C352.476 98.3519 352.081 97.8636 352.141 97.3205C352.196 96.7773 352.679 96.3823 353.227 96.4426L355.186 96.6511C355.729 96.706 356.124 97.1943 356.064 97.7374C356.009 98.2422 355.581 98.6207 355.082 98.6207Z" fill="#F5D72C"/>
<path d="M355.082 98.95C355.038 98.95 354.988 98.95 354.939 98.9445L352.98 98.736C352.629 98.6976 352.316 98.5275 352.097 98.2532C351.878 97.9789 351.773 97.6387 351.812 97.2876C351.85 96.9364 352.02 96.6182 352.294 96.3988C352.569 96.1793 352.914 96.0805 353.26 96.119L355.219 96.3274C355.57 96.3658 355.883 96.5359 356.102 96.8102C356.322 97.0846 356.426 97.4247 356.387 97.7759C356.316 98.4452 355.756 98.9555 355.082 98.9555V98.95ZM353.117 96.7664C352.969 96.7664 352.827 96.8157 352.706 96.909C352.569 97.0187 352.481 97.1778 352.465 97.3534C352.448 97.529 352.497 97.6991 352.607 97.8362C352.717 97.9734 352.876 98.0612 353.052 98.0776L355.01 98.2861C355.389 98.3245 355.696 98.0612 355.735 97.6991C355.751 97.5235 355.702 97.3534 355.592 97.2162C355.482 97.0791 355.323 96.9913 355.147 96.9748L353.189 96.7664C353.189 96.7664 353.139 96.7664 353.117 96.7664Z" fill="#F5D72C"/>
<path d="M388.242 76.5598C387.896 76.5598 387.562 76.3787 387.38 76.055L385.756 73.1636C385.488 72.6863 385.658 72.0883 386.135 71.8195C386.612 71.5506 387.21 71.7207 387.479 72.198L389.103 75.0894C389.372 75.5667 389.202 76.1648 388.725 76.4336C388.571 76.5214 388.406 76.5598 388.242 76.5598Z" fill="#F5D72C"/>
<path d="M388.242 76.8888C387.765 76.8888 387.326 76.631 387.095 76.214L385.471 73.3226C385.301 73.0154 385.257 72.6588 385.35 72.3241C385.444 71.9839 385.669 71.7041 385.97 71.534C386.601 71.1774 387.408 71.4024 387.765 72.0388L389.389 74.9302C389.559 75.2374 389.603 75.594 389.509 75.9287C389.416 76.2689 389.191 76.5487 388.889 76.7187C388.692 76.8285 388.467 76.8888 388.242 76.8888ZM386.612 72.0223C386.503 72.0223 386.393 72.0498 386.289 72.1046C386.135 72.1924 386.025 72.3296 385.976 72.4996C385.927 72.6697 385.949 72.8453 386.036 72.9989L387.66 75.8903C387.83 76.1975 388.247 76.3182 388.56 76.1427C388.714 76.0549 388.823 75.9177 388.873 75.7476C388.922 75.5776 388.9 75.402 388.812 75.2484L387.188 72.357C387.068 72.143 386.843 72.0223 386.612 72.0223Z" fill="#F5D72C"/>
<path d="M428.299 76.938C428.856 76.938 429.308 76.486 429.308 75.9285C429.308 75.3709 428.856 74.9189 428.299 74.9189C427.741 74.9189 427.289 75.3709 427.289 75.9285C427.289 76.486 427.741 76.938 428.299 76.938Z" fill="#F5D72C"/>
<path d="M428.299 77.2672C427.558 77.2672 426.96 76.6637 426.96 75.9285C426.96 75.1934 427.564 74.5898 428.299 74.5898C429.034 74.5898 429.637 75.1934 429.637 75.9285C429.637 76.6637 429.039 77.2672 428.299 77.2672ZM428.299 75.2482C427.926 75.2482 427.618 75.5555 427.618 75.9285C427.618 76.3016 427.926 76.6089 428.299 76.6089C428.672 76.6089 428.979 76.3016 428.979 75.9285C428.979 75.5555 428.672 75.2482 428.299 75.2482Z" fill="#F5D72C"/>
<path d="M438.52 102.247C439.077 102.247 439.529 101.795 439.529 101.238C439.529 100.68 439.077 100.228 438.52 100.228C437.962 100.228 437.51 100.68 437.51 101.238C437.51 101.795 437.962 102.247 438.52 102.247Z" fill="#F5D72C"/>
<path d="M438.52 102.576C437.779 102.576 437.181 101.973 437.181 101.238C437.181 100.502 437.785 99.8989 438.52 99.8989C439.255 99.8989 439.859 100.502 439.859 101.238C439.859 101.973 439.255 102.576 438.52 102.576ZM438.52 100.557C438.147 100.557 437.84 100.865 437.84 101.238C437.84 101.611 438.147 101.918 438.52 101.918C438.893 101.918 439.2 101.611 439.2 101.238C439.2 100.865 438.893 100.557 438.52 100.557Z" fill="#F5D72C"/>
<path d="M398.853 68.9717C399.41 68.9717 399.862 68.5197 399.862 67.9622C399.862 67.4046 399.41 66.9526 398.853 66.9526C398.295 66.9526 397.843 67.4046 397.843 67.9622C397.843 68.5197 398.295 68.9717 398.853 68.9717Z" fill="#F5D72C"/>
<path d="M398.853 69.3009C398.112 69.3009 397.514 68.6974 397.514 67.9622C397.514 67.227 398.112 66.6235 398.853 66.6235C399.593 66.6235 400.191 67.227 400.191 67.9622C400.191 68.6974 399.588 69.3009 398.853 69.3009ZM398.853 67.2819C398.48 67.2819 398.172 67.5892 398.172 67.9622C398.172 68.3353 398.48 68.6426 398.853 68.6426C399.226 68.6426 399.533 68.3353 399.533 67.9622C399.533 67.5892 399.226 67.2819 398.853 67.2819Z" fill="#F5D72C"/>
<path d="M41.04 16L39.56 12.9H31.74L30.28 16H26.9L33.24 2.39998H38.04L44.42 16H41.04ZM32.94 10.38H38.36L35.78 4.95998H35.5L32.94 10.38Z" fill="#F5D72C"/>
<path d="M58.2996 4.75998C59.6462 4.75998 60.7129 4.92665 61.4996 5.25998C62.2996 5.59331 62.8929 6.26665 63.2796 7.27998C63.6662 8.27998 63.8596 9.37331 63.8596 10.56C63.8596 12.3866 63.4529 13.8066 62.6396 14.82C61.8262 15.8333 60.3596 16.3533 58.2396 16.38C58.1996 16.38 58.1596 16.38 58.1196 16.38C56.5729 16.38 55.3062 15.86 54.3196 14.82C54.0396 14.5133 53.7996 14.1866 53.5996 13.84L53.1796 16H50.2196L50.6796 13.52V1.59998H53.6396V6.85998C54.0262 6.24665 54.5596 5.76665 55.2396 5.41998C56.1329 4.97998 57.1529 4.75998 58.2996 4.75998ZM57.5796 7.13998C56.3529 7.13998 55.3862 7.46665 54.6796 8.11998C53.9862 8.77331 53.6396 9.58665 53.6396 10.56C53.6396 11.5066 53.9862 12.32 54.6796 13C55.3862 13.6666 56.3529 14 57.5796 14C58.9262 14 59.8596 13.6866 60.3796 13.06C60.9129 12.4333 61.1796 11.6 61.1796 10.56C61.1796 9.55998 60.9262 8.73998 60.4196 8.09998C59.9262 7.45998 58.9796 7.13998 57.5796 7.13998Z" fill="#F5D72C"/>
<path d="M69.1288 11.24C69.2221 12.04 69.5154 12.68 70.0088 13.16C70.6354 13.76 71.6821 14.06 73.1488 14.06C74.4288 14.06 75.2954 13.92 75.7488 13.64C76.2021 13.36 76.5088 12.9533 76.6688 12.42H79.7688C79.5021 13.66 78.8488 14.6333 77.8088 15.34C76.7821 16.0333 75.2288 16.38 73.1488 16.38C71.4421 16.38 70.0688 16.1466 69.0288 15.68C67.9888 15.2 67.2354 14.5266 66.7688 13.66C66.3021 12.7933 66.0688 11.7666 66.0688 10.58C66.0688 9.33998 66.3021 8.28665 66.7688 7.41998C67.2354 6.55331 67.9821 5.89331 69.0088 5.43998C70.0354 4.98665 71.3754 4.75998 73.0288 4.75998C74.8154 4.75998 76.1421 4.99998 77.0088 5.47998C77.8888 5.94665 78.5554 6.61331 79.0088 7.47998C79.4621 8.33331 79.6888 9.35998 79.6888 10.56V11.24H69.1288ZM76.6488 9.63998C76.5421 8.95998 76.3154 8.40665 75.9688 7.97998C75.4888 7.37998 74.5088 7.07998 73.0288 7.07998C71.6021 7.07998 70.5888 7.37998 69.9888 7.97998C69.5621 8.40665 69.2888 8.95998 69.1688 9.63998H76.6488Z" fill="#F5D72C"/>
<path d="M82.4366 16V7.43998L81.9766 5.13998H84.9566L85.3566 7.19998C85.3966 7.11998 85.4366 7.04665 85.4766 6.97998C85.8766 6.23331 86.4233 5.67998 87.1166 5.31998C87.8099 4.94665 88.8299 4.75998 90.1766 4.75998C91.2699 4.75998 92.1366 4.88665 92.7766 5.13998C93.4166 5.39331 93.9033 5.83331 94.2366 6.45998C94.5833 7.07331 94.7566 7.84665 94.7566 8.77998V16H91.7766V9.37998C91.7766 8.84665 91.7033 8.40665 91.5566 8.05998C91.4233 7.71331 91.1699 7.47331 90.7966 7.33998C90.4366 7.20665 89.9032 7.13998 89.1966 7.13998C88.2499 7.13998 87.5366 7.21998 87.0566 7.37998C86.5766 7.53998 86.2233 7.77331 85.9966 8.07998C85.7699 8.37331 85.6166 8.66665 85.5366 8.95998C85.4566 9.23998 85.4166 9.54665 85.4166 9.87998V16H82.4366Z" fill="#F5D72C"/>
<path d="M100.007 11.24C100.1 12.04 100.394 12.68 100.887 13.16C101.514 13.76 102.56 14.06 104.027 14.06C105.307 14.06 106.174 13.92 106.627 13.64C107.08 13.36 107.387 12.9533 107.547 12.42H110.647C110.38 13.66 109.727 14.6333 108.687 15.34C107.66 16.0333 106.107 16.38 104.027 16.38C102.32 16.38 100.947 16.1466 99.9069 15.68C98.8669 15.2 98.1136 14.5266 97.6469 13.66C97.1802 12.7933 96.9469 11.7666 96.9469 10.58C96.9469 9.33998 97.1802 8.28665 97.6469 7.41998C98.1136 6.55331 98.8602 5.89331 99.8869 5.43998C100.914 4.98665 102.254 4.75998 103.907 4.75998C105.694 4.75998 107.02 4.99998 107.887 5.47998C108.767 5.94665 109.434 6.61331 109.887 7.47998C110.34 8.33331 110.567 9.35998 110.567 10.56V11.24H100.007ZM107.527 9.63998C107.42 8.95998 107.194 8.40665 106.847 7.97998C106.367 7.37998 105.387 7.07998 103.907 7.07998C102.48 7.07998 101.467 7.37998 100.867 7.97998C100.44 8.40665 100.167 8.95998 100.047 9.63998H107.527Z" fill="#F5D72C"/>
<path d="M112.855 7.37998V5.13998H114.055C114.055 3.80665 114.361 2.77998 114.975 2.05998C115.588 1.33998 116.521 0.97998 117.775 0.97998H120.975V3.21998H118.935C118.201 3.21998 117.695 3.39998 117.415 3.75998C117.148 4.10665 117.015 4.53998 117.015 5.05998C117.015 5.08665 117.015 5.11331 117.015 5.13998H120.975V7.37998H117.015V16H114.055V7.37998H112.855Z" fill="#F5D72C"/>
<path d="M123.377 4.13998V1.59998H126.337V4.13998H123.377ZM123.377 16V5.23998H126.337V16H123.377Z" fill="#F5D72C"/>
<path d="M142.013 9.15998H139.153C138.966 8.39998 138.619 7.87331 138.113 7.57998C137.619 7.28665 136.759 7.13998 135.533 7.13998C134.106 7.13998 133.099 7.42665 132.513 7.99998C131.939 8.55998 131.653 9.41998 131.653 10.58C131.653 11.7 131.946 12.5533 132.533 13.14C133.133 13.7133 134.159 14 135.613 14C136.719 14 137.533 13.8666 138.053 13.6C138.586 13.3333 138.973 12.8733 139.213 12.22H142.073C141.859 13.5933 141.253 14.6333 140.253 15.34C139.253 16.0333 137.686 16.38 135.553 16.38C133.913 16.38 132.593 16.1466 131.593 15.68C130.606 15.2 129.88 14.5266 129.413 13.66C128.96 12.7933 128.733 11.7666 128.733 10.58C128.733 9.33998 128.96 8.28665 129.413 7.41998C129.88 6.55331 130.613 5.89331 131.613 5.43998C132.613 4.98665 133.919 4.75998 135.533 4.75998C137.199 4.75998 138.4 4.91998 139.133 5.23998C139.866 5.55998 140.499 6.04665 141.033 6.69998C141.579 7.35331 141.906 8.17331 142.013 9.15998Z" fill="#F5D72C"/>
<path d="M144.47 4.13998V1.59998H147.43V4.13998H144.47ZM144.47 16V5.23998H147.43V16H144.47Z" fill="#F5D72C"/>
<path d="M156.646 16.38C154.979 16.38 153.626 16.1733 152.586 15.76C151.546 15.3333 150.826 14.66 150.426 13.74C150.026 12.82 149.826 11.7666 149.826 10.58C149.826 9.33998 150.026 8.25998 150.426 7.33998C150.826 6.41998 151.552 5.75998 152.606 5.35998C153.659 4.95998 155.006 4.75998 156.646 4.75998C158.446 4.75998 159.826 4.95331 160.786 5.33998C161.746 5.72665 162.439 6.39998 162.866 7.35998C163.292 8.30665 163.506 9.37998 163.506 10.58C163.506 11.8066 163.272 12.8866 162.806 13.82C162.352 14.74 161.659 15.4 160.726 15.8C159.792 16.1866 158.432 16.38 156.646 16.38ZM156.646 14C158.139 14 159.146 13.72 159.666 13.16C160.199 12.6 160.466 11.74 160.466 10.58C160.466 9.41998 160.212 8.55998 159.706 7.99998C159.212 7.42665 158.192 7.13998 156.646 7.13998C155.219 7.13998 154.232 7.43331 153.686 8.01998C153.139 8.59331 152.866 9.44665 152.866 10.58C152.866 11.7666 153.159 12.6333 153.746 13.18C154.346 13.7266 155.312 14 156.646 14Z" fill="#F5D72C"/>
<path d="M175.483 4.75998C176.643 4.75998 177.663 4.97998 178.543 5.41998C179.236 5.76665 179.769 6.24665 180.143 6.85998V1.59998H183.103V13.52L183.563 16H180.603L180.203 13.84C179.989 14.1866 179.743 14.5133 179.463 14.82C178.489 15.86 177.229 16.38 175.683 16.38C175.643 16.38 175.603 16.38 175.563 16.38C173.429 16.3533 171.956 15.8333 171.143 14.82C170.329 13.8066 169.923 12.3866 169.923 10.56C169.923 9.37331 170.116 8.27998 170.503 7.27998C170.889 6.26665 171.476 5.59331 172.263 5.25998C173.063 4.92665 174.136 4.75998 175.483 4.75998ZM176.203 7.13998C174.803 7.13998 173.849 7.45998 173.343 8.09998C172.849 8.73998 172.603 9.55998 172.603 10.56C172.603 11.6 172.863 12.4333 173.383 13.06C173.916 13.6866 174.856 14 176.203 14C177.443 14 178.409 13.6666 179.103 13C179.796 12.32 180.143 11.5066 180.143 10.56C180.143 9.58665 179.796 8.77331 179.103 8.11998C178.409 7.46665 177.443 7.13998 176.203 7.13998Z" fill="#F5D72C"/>
<path d="M188.832 11.24C188.925 12.04 189.219 12.68 189.712 13.16C190.339 13.76 191.385 14.06 192.852 14.06C194.132 14.06 194.999 13.92 195.452 13.64C195.905 13.36 196.212 12.9533 196.372 12.42H199.472C199.205 13.66 198.552 14.6333 197.512 15.34C196.485 16.0333 194.932 16.38 192.852 16.38C191.145 16.38 189.772 16.1466 188.732 15.68C187.692 15.2 186.939 14.5266 186.472 13.66C186.005 12.7933 185.772 11.7666 185.772 10.58C185.772 9.33998 186.005 8.28665 186.472 7.41998C186.939 6.55331 187.685 5.89331 188.712 5.43998C189.739 4.98665 191.079 4.75998 192.732 4.75998C194.519 4.75998 195.845 4.99998 196.712 5.47998C197.592 5.94665 198.259 6.61331 198.712 7.47998C199.165 8.33331 199.392 9.35998 199.392 10.56V11.24H188.832ZM196.352 9.63998C196.245 8.95998 196.019 8.40665 195.672 7.97998C195.192 7.37998 194.212 7.07998 192.732 7.07998C191.305 7.07998 190.292 7.37998 189.692 7.97998C189.265 8.40665 188.992 8.95998 188.872 9.63998H196.352Z" fill="#F5D72C"/>
</svg>
