<svg width="170" height="170" viewBox="0 0 170 170" fill="none" xmlns="http://www.w3.org/2000/svg">
<circle cx="85.5" cy="85.5" r="81.5" fill="white"/>
<path fill-rule="evenodd" clip-rule="evenodd" d="M29.6053 96.2189C40.4376 84.3756 58.12 77.0303 69.561 76.6692C83.6326 76.2359 91.9271 84.324 92.2778 95.5483C92.4738 102.13 90.7613 107.876 83.5604 115.634C77.5356 122.526 74.7501 123.774 74.1827 123.805C73.5637 123.826 73.3265 123.496 73.3162 123.073C73.2955 122.66 73.3677 122.237 73.5122 122.113C74.2034 121.474 74.7811 120.772 75.431 120.019C77.876 117.306 78.1443 116.945 79.5989 114.376C82.3018 109.445 83.0652 106.277 82.9414 102.347C82.5597 89.9877 72.8622 81.4457 60.8951 81.8274C45.7712 82.302 27.5627 101.181 28.3364 126.054C28.4499 129.541 28.8935 132.718 29.6156 135.617C42.1398 149.452 59.7603 158.582 79.506 160.078C94.1451 155.136 104.915 141.694 104.317 122.485C104.152 117.44 103.461 112.808 101.913 107.804L96.7964 90.6892C93.3197 78.6912 92.4532 72.1196 92.2881 66.7241C91.7413 49.248 97.9415 36.6517 109.352 26.9026C113.096 23.7767 117.089 21.2801 121.257 19.3819C110.569 13.5222 98.3026 10.1899 85.242 10.1899C43.7905 10.1899 10.1898 43.801 10.1898 85.2422C10.1898 96.6625 12.7482 107.495 17.3184 117.182C19.5571 109.589 23.6734 102.563 29.5744 96.2189H29.6053Z" fill="#003B7A"/>
<path fill-rule="evenodd" clip-rule="evenodd" d="M139.651 66.8472C138.186 66.8885 136.649 66.7234 135.648 66.5687C135.37 66.579 134.771 66.352 134.751 65.8878C134.74 65.5164 135.132 65.2688 135.669 65.2482L136.969 65.2172C142.787 65.0315 149.637 60.255 152.701 52.2597C146.501 39.6324 136.866 28.9961 125.002 21.5786C116.429 25.8599 109.775 35.2066 110.084 45.1311C110.229 50.0417 112.168 59.213 115.655 66.6512L121.556 79.8563C128.344 94.289 129.345 102.274 129.541 108.773C130.387 135.885 111.116 148.667 104.895 152.876C100.603 155.713 95.9093 158.138 90.9677 160.098C129.768 157.188 160.346 124.805 160.346 85.2621C160.346 76.6788 158.902 68.436 156.24 60.7502C151.721 64.4848 145.944 66.6615 139.661 66.8575L139.651 66.8472Z" fill="#003B7A"/>
</svg>
